<svg xmlns="http://www.w3.org/2000/svg" width="55.166" height="27.325" viewBox="0 0 55.166 27.325">
  <g id="组_47311" data-name="组 47311" transform="translate(474.18 -581.805)">
    <path id="路径_14576" data-name="路径 14576" d="M-431.247,590.487a2.962,2.962,0,0,0-1.121-.1c-.947.126-2.066.287-3.183.523-1.017.213-2.044.459-3.129.72-.359.087-.728.176-1.11.266l.064-.235c.1-.367.175-.641.224-.919a2.547,2.547,0,0,0-.357-2.008,2.446,2.446,0,0,0-1.746-.9,11.19,11.19,0,0,0-2.393.018,1.272,1.272,0,0,0-1.258,1.338,1.246,1.246,0,0,0,1.341,1.235c.223.013.447.018.686.018s.521,0,.821-.009c-.034.078-.065.152-.1.223a8.967,8.967,0,0,0-.371.96,2.22,2.22,0,0,1-1.861,1.607,26.1,26.1,0,0,0-2.678.812l-.562.192c-1.569.526-1.664,1.355-1.466,1.96.416,1.277,1.861.859,2.334.724.55-.159,1.1-.324,1.646-.489,1.021-.307,2.078-.625,3.123-.9a26.066,26.066,0,0,1,3.4-.69.833.833,0,0,1,.743.174.739.739,0,0,1,.025.691,7.208,7.208,0,0,1-4.443,4.585l-.185.068c-.517.191-1.1.407-1.087,1.275a1.608,1.608,0,0,0,1.558,1.608h.016a3.372,3.372,0,0,0,1.8-.493c2.991-2.017,5.7-4.479,5.368-8.791a10.719,10.719,0,0,1,3.369-.529c.079,0,.158,0,.233,0,1.438,0,1.727-.779,1.77-1.248C-429.7,591.395-430.28,590.736-431.247,590.487Z" transform="translate(10.752 5.901)" fill="#1e2022"/>
    <path id="路径_14577" data-name="路径 14577" d="M-451.637,592.716l-.469.217c-.43.2-.859.4-1.3.574-.719.276-1.445.534-2.214.806l-.726.259-.023-.139c-.042-.255-.075-.447-.091-.639q-.124-1.458-.243-2.911c-.143-1.743-.286-3.484-.447-5.227-.12-1.29-.27-2.409-.46-3.426a1.774,1.774,0,0,0-.745-1.2,1.248,1.248,0,0,0-.985-.172,1.483,1.483,0,0,0-1.154,1.67c.007.25.032.5.058.752l.009.087c.056.565.119,1.131.181,1.7.132,1.2.268,2.44.35,3.66.111,1.62.181,3.281.25,4.888.027.629.054,1.26.084,1.895l-.6.189c-.44.14-.827.262-1.218.379-.363.107-.729.208-1.093.308-.675.188-1.374.38-2.054.613a1.947,1.947,0,0,0-1.208.953,1.266,1.266,0,0,0-.006,1.021,1.524,1.524,0,0,0,1.983.9c.392-.091.78-.2,1.169-.3.295-.082.591-.165.889-.237.489-.121.981-.231,1.478-.343l.325-.074,0,1.011c0,1.031-.009,2.009.012,2.988l.006.331a14.348,14.348,0,0,0,.188,2.482,2.129,2.129,0,0,0,1,1.492,1.692,1.692,0,0,0,.834.221,1.739,1.739,0,0,0,.587-.1,2.147,2.147,0,0,0,1.13-2.716c-.048-.142-.107-.282-.168-.422a2.079,2.079,0,0,1-.217-.7c-.032-1.4-.026-2.825-.023-4.2l0-1.274q.547-.2,1.064-.37c.907-.311,1.762-.606,2.592-.963a16.3,16.3,0,0,0,2.749-1.52c.944-.644,1.211-1.381.791-2.193C-449.855,592-450.795,592.332-451.637,592.716Z" transform="translate(3.717 0.982)" fill="#1e2022"/>
    <path id="路径_14578" data-name="路径 14578" d="M-459.991,595.415a1.012,1.012,0,0,0,.149-.817,1.791,1.791,0,0,0-1.182-1.189c-1.008-.2-2.046-.308-3.05-.411l-.856-.091c-.38-.039-.764-.064-1.239-.093l-.074,0a8.715,8.715,0,0,0,.63-.609l.132-.145a10.069,10.069,0,0,0,1.13-1.4,1.257,1.257,0,0,0-.158-1.2c-.227-.314-.819-.263-1.07-.191a5.417,5.417,0,0,0-.878.369l-.012.006-.6-3.384c.08-.1.166-.21.257-.323.32-.4.681-.85,1.014-1.338a1.484,1.484,0,0,0-.153-2.178,1.5,1.5,0,0,0-2.168.408c-.926,1.022-1.883,2.081-2.787,3.16a1.178,1.178,0,0,0-.325,1.115,1.316,1.316,0,0,0,.988.832,3.626,3.626,0,0,0,.7.117l.094.01c0,.2,0,.391-.006.58-.01.639-.019,1.242.022,1.851a1.217,1.217,0,0,1-.764,1.266c-1.1.632-2.159,1.339-3.187,2.022a1.423,1.423,0,0,0-.7,1.759,1.31,1.31,0,0,0,1.627.824l-.185.438c-.265.625-.519,1.225-.758,1.834a1.555,1.555,0,0,0-.056,1.2.9.9,0,0,0,.573.469,1.883,1.883,0,0,0,1.565-.417,5.79,5.79,0,0,0,.93-1.166c.1-.147.2-.294.3-.435.14-.2.276-.395.411-.6a2.579,2.579,0,0,1,.035.568l-.124,4.738a1.372,1.372,0,0,0,1.024,1.575,1.732,1.732,0,0,0,.421.053,1.471,1.471,0,0,0,1.4-1.011,6.263,6.263,0,0,0,.395-1.994c.035-.975.033-1.964.03-2.92,0-.609,0-1.218.006-1.825a6.226,6.226,0,0,1,.084-.8c.009-.046.014-.1.023-.145.244.019.484.039.72.056.771.062,1.5.121,2.229.145a12.892,12.892,0,0,0,2.33-.107A1.629,1.629,0,0,0-459.991,595.415Z" transform="translate(0 1.558)" fill="#1e2022"/>
    <path id="路径_14579" data-name="路径 14579" d="M-448.571,595.859a4.138,4.138,0,0,0,.231-1.532c.017-.982.013-1.965.009-2.905v-.86l.475-.149c.464-.144.877-.272,1.288-.4l2.507-.8q3.48-1.113,6.962-2.213a5.185,5.185,0,0,1,1.358-.214,12.054,12.054,0,0,1,1.368.115c.139.018.283.034.432.052l-.093.307c-.121.4-.222.734-.336,1.062-.093.265-.2.525-.3.785-.131.332-.261.664-.372,1a1.289,1.289,0,0,0,.027,1.023.873.873,0,0,0,.567.428,1.4,1.4,0,0,0,1.3-.427l.091-.135a17.445,17.445,0,0,0,1.782-3.056,2.819,2.819,0,0,0-.057-2.464,2.777,2.777,0,0,0-2.015-1.359,11.416,11.416,0,0,0-2.866-.144,1.157,1.157,0,0,0,.508-.427,25.959,25.959,0,0,0,1.449-3.221,1.225,1.225,0,0,0-.032-.977,1.327,1.327,0,0,0-.818-.657,1.214,1.214,0,0,0-1.564.7c-.309.769-.571,1.555-.848,2.388-.117.35-.237.712-.364,1.084l-.049.143.092.118c.061.08.119.174.179.267a1.613,1.613,0,0,0,.647.68c-.062.009-.127.013-.188.025a22.61,22.61,0,0,0-3.321.947c-.4.136-.8.272-1.2.4-.528.167-1.053.35-1.577.532-.975.338-1.986.69-3,.931a6.074,6.074,0,0,0-2.171,1.17,5.909,5.909,0,0,1-1.829,1.038c-.489.136-.852.945-.878,1.422-.067,1.272-.044,2.564-.022,3.814l.01.6a1.5,1.5,0,0,0,.3,1.018,2.037,2.037,0,0,0,1.207.724h.034A1.445,1.445,0,0,0-448.571,595.859Z" transform="translate(10.247 3.184)" fill="#1e2022"/>
    <path id="路径_14580" data-name="路径 14580" d="M-466.272,590.012c.936.464,1.919.862,2.871,1.245.389.156.777.312,1.161.473l.107.045.108-.035c.742-.237,1.443-.461,1.689-1.3a1.387,1.387,0,0,0-.821-1.718c-1.1-.5-2.421-1.069-3.795-1.543a1.515,1.515,0,0,0-1.882.843A1.418,1.418,0,0,0-466.272,590.012Z" transform="translate(3.194 3.782)" fill="#1e2022"/>
    <path id="路径_14581" data-name="路径 14581" d="M-444.068,584.055a1.664,1.664,0,0,0,1.178.421,1.746,1.746,0,0,0,.279-.022,1.545,1.545,0,0,0,.791-.51,2.4,2.4,0,0,1,.183-.173l.128-.1-.027-.165c-.018-.114-.029-.2-.035-.268a.669.669,0,0,0-.1-.344l-.593-.844c-.625-.892-1.27-1.816-1.962-2.682a1.221,1.221,0,0,0-1.713-.1,1.308,1.308,0,0,0-.438,1.795A25.359,25.359,0,0,0-444.068,584.055Z" transform="translate(11.625 3.288)" fill="#1e2022"/>
    <path id="路径_14582" data-name="路径 14582" d="M-464.85,586.4a17.772,17.772,0,0,0,3.159,1.372.7.7,0,0,0,.226.033,1.319,1.319,0,0,0,1.067-.564,1.341,1.341,0,0,0-.291-1.349c-.837-.746-1.757-1.416-2.569-2.007a1.691,1.691,0,0,0-.644-.244c-.113-.026-.239-.056-.377-.1l-.179-.053-.133.133a3.332,3.332,0,0,1-.282.242c-.3.24-.638.51-.674.886A1.935,1.935,0,0,0-464.85,586.4Z" transform="translate(3.849 2.17)" fill="#1e2022"/>
    <path id="路径_14583" data-name="路径 14583" d="M-448.665,585.16l.289.218a.349.349,0,0,0,.215.071,1.314,1.314,0,0,0,.594-.244c.066-.039.126-.076.169-.1l.143-.064.019-.156a3.825,3.825,0,0,0-1.053-2.275c-.319-.389-.93-1.049-1.424-1.085a1.368,1.368,0,0,0-1.3.717.833.833,0,0,0,.086.944A13.34,13.34,0,0,0-448.665,585.16Z" transform="translate(10.277 4.046)" fill="#1e2022"/>
  </g>
</svg>
