<svg xmlns="http://www.w3.org/2000/svg" width="101.301" height="55.765" viewBox="0 0 101.301 55.765">
  <g id="组_47336" data-name="组 47336" transform="translate(-1081.412 -574.89)">
    <path id="路径_14714" data-name="路径 14714" d="M1131.191,590.675c.538-.1,1.072-.213,1.656-.339l.5-.108v.018c0,.23,0,.426,0,.622l-.027,2.01c-.024,1.6-.046,3.2-.053,4.8a15.176,15.176,0,0,0,.147,2.061,1.106,1.106,0,0,0,1.073,1.019h.045a1.162,1.162,0,0,0,1.126-1.027,3.59,3.59,0,0,0,.052-.663c.014-.772.033-1.545.053-2.317.05-2.053.1-4.176.078-6.264a1.8,1.8,0,0,1,1.074-1.969,12.263,12.263,0,0,0,3.727-2.97,6.76,6.76,0,0,0,.995-1.427,2.535,2.535,0,0,0,.051-2.4,2.447,2.447,0,0,0-2.052-1.149,16,16,0,0,0-2.16.041c-.261.016-.521.033-.78.044-.242.012-.481.043-.737.079l-.079.009v-.009c-.015-.173-.028-.321-.036-.471l-.067-1.181c-.036-.636-.07-1.273-.111-1.909a3.916,3.916,0,0,0-.127-.841,1.1,1.1,0,0,0-1.2-.865,1.123,1.123,0,0,0-.981,1.1,3.057,3.057,0,0,0,.005.487l.059,1.236c.032.7.065,1.408.093,2.111.008.209.005.419,0,.647v.125l-1.932.343a6.991,6.991,0,0,0-.905.192.958.958,0,0,0-.729,1.1.976.976,0,0,0,1.006.848,3.193,3.193,0,0,0,.622-.056l1.771-.237V587.7l-1.683.581-.065-.076a3.739,3.739,0,0,1-.277-.348,13.282,13.282,0,0,0-3.253-3.346,2.88,2.88,0,0,0-.658-.4.893.893,0,0,0-1.194.376,1.466,1.466,0,0,0-.068,1.016,1.3,1.3,0,0,0,.388.53c.056.055.113.109.163.167l.324.378q1.213,1.419,2.422,2.843a1.152,1.152,0,0,1,.138.31C1129.923,590.647,1130.251,590.843,1131.191,590.675Zm4.7-7.586a8.834,8.834,0,0,1,3.483-.092,11.129,11.129,0,0,1-3.434,3.446A13.613,13.613,0,0,1,1135.893,583.088Z" transform="translate(3.516 0.045)" fill="#10ad48"/>
    <path id="路径_14715" data-name="路径 14715" d="M1092.624,593.823a7.191,7.191,0,0,0,.2,1.718,1.117,1.117,0,0,0,.841.725l.055,0a1.168,1.168,0,0,0,.9-.551,3.364,3.364,0,0,0,.4-1.365c.058-1.172.083-2.365.108-3.516l.026-1.169c0-.192,0-.384,0-.592v-.031a12.622,12.622,0,0,1,4.117,2.355,3.745,3.745,0,0,1-1.889.948l-.187.035a1.974,1.974,0,0,0-.748.238,1.136,1.136,0,0,0-.5.86,1.238,1.238,0,0,0,.488.824,1.151,1.151,0,0,0,.634.2l.093.011a4.747,4.747,0,0,0,3.5-1.011c.174-.127.345-.258.527-.4l.1-.077.095.086c.19.174.37.338.557.5l.221.188a6.216,6.216,0,0,0,.853.65,1.514,1.514,0,0,0,2.095-.385c.563-.907-.312-1.6-.6-1.828-.437-.345-.865-.7-1.278-1.043l-.354-.294c.049-.142.1-.278.147-.411a10.845,10.845,0,0,0,.365-1.141,3.506,3.506,0,0,0-.665-3.169,3.568,3.568,0,0,0-3.1-1.08c-.094.01-.188.027-.281.043l-.167.028a11.432,11.432,0,0,0-3.463,1.274c-.079.041-.156.086-.235.134a1.233,1.233,0,0,1-.48.209l-.312-6.214a4.386,4.386,0,0,0-.056-.643,1.005,1.005,0,0,0-1.988-.024,3.872,3.872,0,0,0-.077.847q.01,1.324.026,2.648c.013,1.3.027,2.592.031,3.889,0,1.014,0,2.028,0,3.043C1092.62,591.492,1092.616,592.657,1092.624,593.823Zm5.384-6.022a5.175,5.175,0,0,1,2.043-.347,1,1,0,0,1,.8.3,1.126,1.126,0,0,1,.1.907,4.657,4.657,0,0,1-.172.54c-.006.015-.012.03-.017.046Z" transform="translate(0.878 0.328)" fill="#10ad48"/>
    <path id="路径_14716" data-name="路径 14716" d="M1114.031,613.883l6.642-1.1-.079.758c-.152,1.46-.3,2.918-.484,4.374a1.657,1.657,0,0,1-.346.631,1.135,1.135,0,0,0-.267,1.006,1.117,1.117,0,0,0,.758.694,1.653,1.653,0,0,0,.581.108,1.635,1.635,0,0,0,1.509-1.047,6.386,6.386,0,0,0,.434-1.874c.084-1,.133-2.017.18-3q.031-.665.066-1.328c.012-.219.031-.438.052-.664l.009-.094.739-.148c.708-.14,1.393-.275,2.072-.437a1.338,1.338,0,0,0,1.125-1.513,1.32,1.32,0,0,0-1.525-1.1,9.914,9.914,0,0,0-1.279.211c-.162.033-.323.068-.484.1-.317.06-.632.124-.968.192l-.082.016.176-2.1.114-.005c.275-.013.541-.025.808-.043l.3-.018a7.546,7.546,0,0,0,.962-.094,2.792,2.792,0,0,0,1.088-.373,1.155,1.155,0,0,0-.244-2.085,3.048,3.048,0,0,0-1.232-.126c-.54.03-1.078.087-1.623.145l-.47.049-.01-.03c-.047-.139-.088-.263-.126-.388s-.07-.256-.1-.384a5.7,5.7,0,0,0-.257-.828,1.208,1.208,0,0,0-1.467-.741,1.261,1.261,0,0,0-.91,1.364,2.834,2.834,0,0,0,.077.452c.018.087.039.176.052.264l.184,1.257c.1.716.208,1.432.32,2.148.077.485.168.966.266,1.482l.1.529-2.713.5c-.008-.122-.015-.21-.028-.3q-.057-.406-.111-.812c-.092-.683-.187-1.389-.321-2.081a1.217,1.217,0,0,0-1.4-1.119c-.709.109-1.087.716-.987,1.585.035.3.087.6.14.905l.388,2.263-1.737.427c-.194.045-.388.091-.575.153a1.179,1.179,0,0,0-.949,1.326,1.2,1.2,0,0,0,1.444.919C1113.9,613.9,1113.969,613.893,1114.031,613.883Z" transform="translate(2.436 2.18)" fill="#10ad48"/>
    <path id="路径_14717" data-name="路径 14717" d="M1161.038,619.007l-1.971-.477c-.02-.107-.038-.209-.054-.31a3.618,3.618,0,0,0-.246-.948,3.113,3.113,0,0,1,.2-3.046,5.025,5.025,0,0,0,.52-1.294,1.538,1.538,0,0,0-.229-1.294,1.6,1.6,0,0,0-1.218-.617,2.431,2.431,0,0,0-.883.074c-1.24.373-2.26.7-3.207,1.027a.958.958,0,1,0,.478,1.851c.522-.1,1.041-.227,1.558-.353.258-.064.518-.127.776-.187.07-.016.141-.03.212-.043l-.126.4a8.067,8.067,0,0,0-.434,1.837,7.774,7.774,0,0,0,.156,1.859c.028.165.054.33.079.5-.066-.005-.13-.01-.2-.012l-.239-.009a3.85,3.85,0,0,0-.778.018,1.158,1.158,0,0,0-1.051,1.032,1.194,1.194,0,0,0,.752,1.261,1.854,1.854,0,0,0,.9.225,6.226,6.226,0,0,1,2.636.529,37.247,37.247,0,0,0,10.8,2.048c.5.024,1.021.042,1.554.042a14.538,14.538,0,0,0,5.941-1.1l.152-.062a1.47,1.47,0,0,0,.635-.395,1.284,1.284,0,0,0,.276-1.024c-.093-.3-.423-.5-.766-.68a.869.869,0,0,0-.554-.023l-.119.02a35.912,35.912,0,0,1-8.652.345c-.289-.033-.582-.059-.872-.083-.383-.032-.764-.065-1.143-.118-.293-.042-.589-.077-.883-.112a15.127,15.127,0,0,1-2.251-.386,2.88,2.88,0,0,0,1.507-1.552c.276-.606.537-1.219.8-1.832l.4-.929c.049-.111.1-.223.173-.376a2.074,2.074,0,0,0,.262.351,19.975,19.975,0,0,0,4.149,3.251l.069.042a5.178,5.178,0,0,0,.5.275,1.475,1.475,0,0,0,1.938-.328c.384-.587.161-1.323-.57-1.876a5.893,5.893,0,0,0-.676-.426l-.251-.145a20.232,20.232,0,0,1-4.411-3.248l-.1-.1c-.194-.193-.286-.294-.258-.492.1-.658.176-1.317.258-1.988l.085-.687.217-.088c.267-.107.532-.213.79-.337.18-.087.363-.173.545-.258a13.7,13.7,0,0,0,1.758-.928,3.946,3.946,0,0,0,1-1.129l.087-.128a.951.951,0,0,0-.134-1.235.983.983,0,0,0-1.2-.19c-.2.1-.4.208-.6.318-.163.091-.328.181-.494.265-.552.277-1.106.548-1.695.837l-.326.16c-.025-.163-.044-.293-.052-.426-.012-.189-.018-.379-.023-.567-.01-.316-.02-.631-.055-.945a1.023,1.023,0,0,0-.979-1,1.037,1.037,0,0,0-1.044.924,3.263,3.263,0,0,0-.053.579l-.022.556c-.017.429-.037.875-.016,1.317.017.357-.095.5-.463.586-.617.146-1.231.3-1.847.457l-.727.183c-.092.024-.186.043-.279.064a3.4,3.4,0,0,0-.7.2,1.137,1.137,0,0,0,.332,2.177,3.151,3.151,0,0,0,.866-.026c.46-.08.918-.17,1.376-.261.293-.058.588-.117.881-.172.089-.016.179-.026.279-.035a18.806,18.806,0,0,1-2.017,6.267.588.588,0,0,1-.245.259,1.114,1.114,0,0,0-1.024,1.027,1.418,1.418,0,0,0,.167.9" transform="translate(4.646 2.275)" fill="#10ad48"/>
    <path id="路径_14718" data-name="路径 14718" d="M1115.475,590.1a5.368,5.368,0,0,0,.845-.132c.188-.04.376-.081.566-.1l.262-.033a8.174,8.174,0,0,1,2.9-.028,1.2,1.2,0,0,1,.854.5,1.158,1.158,0,0,1-.081.953,4.678,4.678,0,0,1-.638,1.069,6.608,6.608,0,0,1-4,2.548c-.534.1-1.142.317-1.123,1.041a.926.926,0,0,0,.286.67,1.362,1.362,0,0,0,.959.319h.059l.168,0a5.842,5.842,0,0,0,2.006-.275,8.08,8.08,0,0,0,4.712-4.579,3.1,3.1,0,0,0-2.451-4.488,12.962,12.962,0,0,0-2.526-.121l-.509.006a7.825,7.825,0,0,0-1.176.13c-.031,0-.061.009-.091.013l.137-.235c.1-.172.2-.343.3-.517.617-1.11.06-1.606-.208-1.768a.959.959,0,0,0-1.174.1c.116-.1.24-.2.356-.3a.925.925,0,0,1,.943-.272c1.873.385,3.745.727,5.825,1.1a7.844,7.844,0,0,0,1.275.092h.033a1.059,1.059,0,0,0,.478-2.041,8.646,8.646,0,0,0-1.791-.62c-.934-.186-1.888-.342-2.809-.492-.519-.085-1.036-.17-1.551-.26a.76.76,0,0,1-.158-.049q.113-.309.229-.607a13.269,13.269,0,0,0,.6-1.834,2.6,2.6,0,0,0-2.185-3.324,10.392,10.392,0,0,0-2.307-.085l-.12,0c-.722.026-1.424.087-2.168.15l-.673.057a.834.834,0,0,1-.012-.208,1.422,1.422,0,0,0-.231-1.153,1.092,1.092,0,0,0-.8-.426c-.636-.019-1.075.42-1.253,1.373-.222,1.185-.461,2.367-.7,3.549l-.209,1.04a.938.938,0,0,1-.4.7.926.926,0,0,0-.3,1.284,3.539,3.539,0,0,1,.14.338l.051.132c.232.587.551.757.778.8a1.094,1.094,0,0,0,.982-.477.59.59,0,0,1,.593-.26c.861.13,1.722.266,2.583.4l.491.078a4.934,4.934,0,0,1-.418.375l-1.013.784c-1.064.824-2.165,1.676-3.271,2.48a19.2,19.2,0,0,1-4.643,2.565l-.082.028a.771.771,0,0,0-.467.312,1.578,1.578,0,0,0-.334.87c.024.468.4.768.97.768h.014a2.253,2.253,0,0,0,.421-.058l.145-.03a10.885,10.885,0,0,0,3.842-1.558c.667-.408,1.307-.82,1.933-1.235a.957.957,0,0,0-.141.708,1.047,1.047,0,0,0,1.072.877c.09,0,.182,0,.279,0-.05.083-.094.156-.139.228l-.585.918c-.408.638-.815,1.276-1.214,1.92a3.275,3.275,0,0,0-.392.872,1.155,1.155,0,0,0,.643,1.424,1.187,1.187,0,0,0,1.413-.4,2.184,2.184,0,0,0,.189-.288l.845-1.342c.67-1.059,1.341-2.117,1.995-3.185A1.37,1.37,0,0,1,1115.475,590.1Zm1.03-10.553a5.1,5.1,0,0,1-1.136,2.133.376.376,0,0,1-.276.127c-1.166-.162-2.33-.342-3.517-.525l-.854-.133.561-2.424.885-.047c.883-.05,1.718-.1,2.566-.114a4.435,4.435,0,0,1,1.318.186C1116.563,578.885,1116.626,579,1116.505,579.545Zm-.966,5.63a2.447,2.447,0,0,0-.469.533q-.718,1.063-1.418,2.139a.814.814,0,0,1-.646.433,6.333,6.333,0,0,0-.661.106l-.526.094a6.781,6.781,0,0,0-.727.149A47.9,47.9,0,0,0,1115.539,585.174Z" transform="translate(1.699 0)" fill="#10ad48"/>
    <path id="路径_14719" data-name="路径 14719" d="M1091.555,579.859a7.873,7.873,0,0,0-.988-2.63,2.782,2.782,0,0,0-3.385-1.247,7.339,7.339,0,0,0-2.592,1.69.967.967,0,0,0-.168,1.313,1,1,0,0,0,1.365.293,3.4,3.4,0,0,0,.4-.239c.071-.047.145-.1.217-.139l.29-.172a6.176,6.176,0,0,1,.762-.416c.621-.272.99-.146,1.272.427a6.146,6.146,0,0,1,.552,1.59c.27,1.5.472,2.86.619,4.176l.012.106a45.8,45.8,0,0,1,.423,7.256c-.021.424-.076.859-.13,1.279-.012.1-.025.2-.037.3l-.025-.026c-.182-.2-.365-.4-.558-.586a.8.8,0,0,0-1.166-.1,1.052,1.052,0,0,0-.3.975l.086.216a6.665,6.665,0,0,0,.941,1.8,1.82,1.82,0,0,0,1.4.71,1.568,1.568,0,0,0,.175-.009,1.925,1.925,0,0,0,1.485-1.1,4.808,4.808,0,0,0,.431-1.422,20.129,20.129,0,0,0,0-5.716C1092.318,585.379,1091.989,582.625,1091.555,579.859Z" transform="translate(0.222 0.073)" fill="#10ad48"/>
    <path id="路径_14720" data-name="路径 14720" d="M1127.218,611.432a1.265,1.265,0,0,0-1.381,1.012,2.407,2.407,0,0,0-.066.294,1.735,1.735,0,0,1-.045.223c-.079.249-.147.5-.216.758a8.245,8.245,0,0,1-.557,1.627,20.687,20.687,0,0,1-10.771,10.148,2.273,2.273,0,0,0-.48.242,1.084,1.084,0,0,0-.459,1.212,1.059,1.059,0,0,0,1.013.827q.078,0,.152,0a2.489,2.489,0,0,0,.815-.121l.385-.133a12.175,12.175,0,0,0,1.866-.756,22.5,22.5,0,0,0,9.72-10.04,11.715,11.715,0,0,0,1.043-3.732l0-.025C1128.288,611.713,1127.541,611.476,1127.218,611.432Z" transform="translate(2.501 2.875)" fill="#10ad48"/>
    <path id="路径_14721" data-name="路径 14721" d="M1088.612,587.284a.987.987,0,0,0-1.288-.042c-.837.427-1.674.857-2.519,1.272a1.725,1.725,0,0,1-.288.1l.575-2.629c.265-.056.525-.108.779-.16.733-.148,1.425-.288,2.108-.47a4.34,4.34,0,0,0,1.248-.633,1,1,0,0,0,.4-1.165,1.013,1.013,0,0,0-1.083-.746,5.755,5.755,0,0,0-1.178.218c-.459.119-.915.249-1.423.4l-.293.084c.018-.156.033-.285.054-.411.042-.267.087-.534.134-.8.093-.539.187-1.1.251-1.653a1.085,1.085,0,0,0-.836-1.234,1.072,1.072,0,0,0-1.255.774,2.99,2.99,0,0,0-.126.48l-.2.957c-.085.395-.169.79-.257,1.184l-.572,2.567q-.675,3.027-1.342,6.056a3.583,3.583,0,0,0-.078,1.043,1.267,1.267,0,0,0,1.174,1.265h.055c.61,0,1.041-.426,1.184-1.177.067-.342.117-.686.167-1.015l.04-.265.7-.256c.662-.242,1.3-.476,1.938-.725a3.918,3.918,0,0,0,1.9-1.649A1.022,1.022,0,0,0,1088.612,587.284Z" transform="translate(0 0.354)" fill="#10ad48"/>
    <path id="路径_14722" data-name="路径 14722" d="M1108.578,611.479a8.316,8.316,0,0,0-1.437-.2c-.636-.039-1.269-.037-1.959-.037-.284,0-.567,0-.851,0-.8,0-1.622-.008-2.431.054-1.918.147-3.865.33-5.748.507l-1.907.178a2.311,2.311,0,0,0-.681.133,1.177,1.177,0,0,0-.773,1.144,1.159,1.159,0,0,0,.8,1.13,2.121,2.121,0,0,0,.715.113h.077c.874-.023,1.864-.049,2.835-.114,1.143-.076,2.288-.131,3.43-.184,1.18-.056,2.4-.114,3.6-.2l.255,0,.16-.023c.316.006.632.032.948.056a11.741,11.741,0,0,0,1.474.051,7.015,7.015,0,0,0,1.524-.285,1.159,1.159,0,0,0,.894-1.173A1.145,1.145,0,0,0,1108.578,611.479Z" transform="translate(0.895 2.86)" fill="#10ad48"/>
    <path id="路径_14723" data-name="路径 14723" d="M1148.089,586.815c.158.294.319.588.481.879s.332.6.494.9c1.325,2.509,3.608,3.823,7.184,4.132l.039,0,.039-.008c.118-.024.246-.047.382-.07a8.482,8.482,0,0,0,1.075-.242,3.378,3.378,0,0,0,2.281-2.233,3.749,3.749,0,0,0-.958-3.473.888.888,0,0,0-1.2-.26.875.875,0,0,0-.371,1.074c.029.113.064.223.1.334a3.006,3.006,0,0,1,.138.562c.115,1.089-.3,1.613-1.4,1.751a2.329,2.329,0,0,1-.552.016,6.2,6.2,0,0,1-4.885-2.823c-.2-.313-.389-.635-.576-.958-.121-.209-.244-.421-.4-.681a3.256,3.256,0,0,0-.4-.569,1.026,1.026,0,0,0-1.754.945A2.84,2.84,0,0,0,1148.089,586.815Z" transform="translate(5.221 0.78)" fill="#10ad48"/>
    <path id="路径_14724" data-name="路径 14724" d="M1093.972,579.1c.187-.058.368-.134.548-.209a4.9,4.9,0,0,1,.6-.222l.353-.1a16.266,16.266,0,0,1,2.1-.478.7.7,0,0,1,.521.069.693.693,0,0,1,.115.5c-.1,2.277-.368,4.245-2.548,5.27a1.007,1.007,0,0,0-.606,1.06.991.991,0,0,0,.825.919,3.29,3.29,0,0,0,.578.052,2.924,2.924,0,0,0,.564-.054,3.425,3.425,0,0,0,2.056-1.47,9.892,9.892,0,0,0,1.727-5.276l0-.183a3.377,3.377,0,0,0-.006-.392,3.229,3.229,0,0,0-1.218-2.449,2.981,2.981,0,0,0-2.5-.369,19.913,19.913,0,0,0-3.131,1.141q-.391.168-.783.333a1.092,1.092,0,0,0-.617.6.988.988,0,0,0,.026.777A1.062,1.062,0,0,0,1093.972,579.1Z" transform="translate(0.871 0.061)" fill="#10ad48"/>
    <path id="路径_14725" data-name="路径 14725" d="M1159.523,582.791l.333.75c.342.769.684,1.538,1.045,2.3a5.467,5.467,0,0,0,.655,1.005,1.218,1.218,0,0,0,.957.555,1.093,1.093,0,0,0,.438-.1,1.257,1.257,0,0,0,.677-1.14l-.258-.095.266.042.009-.056-.014-.055c-.035-.128-.062-.26-.09-.392a3.916,3.916,0,0,0-.275-.922c-.4-.8-.831-1.6-1.252-2.364l-.374-.687a1.8,1.8,0,0,0-.316-.412,1.156,1.156,0,0,0-1.354-.256,1.171,1.171,0,0,0-.625,1.344A2.437,2.437,0,0,0,1159.523,582.791Z" transform="translate(6.13 0.469)" fill="#10ad48"/>
    <path id="路径_14726" data-name="路径 14726" d="M1114.8,616.412c.016.2.029.4.042.607a10.84,10.84,0,0,0,.163,1.516,1.954,1.954,0,0,0,1.526,1.608.992.992,0,0,0,.2.019,1.478,1.478,0,0,0,.819-.275.835.835,0,0,0,.114-1.168,3.98,3.98,0,0,1-.47-2.236c0-.277.007-.556.014-.832.012-.373.024-.747.01-1.119a1.164,1.164,0,0,0-1.068-1.243l-.076,0a1.151,1.151,0,0,0-1.122,1.117c-.071.52-.112,1.05-.149,1.564l-.041,0,.02.206-.009.222Z" transform="translate(2.624 3.021)" fill="#10ad48"/>
    <path id="路径_14727" data-name="路径 14727" d="M1157.759,608.064c-.372-.355-.743-.71-1.1-1.074a7.085,7.085,0,0,1-.481-.565c-.136-.173-.272-.344-.42-.5a1.076,1.076,0,1,0-1.686,1.323,10.119,10.119,0,0,0,2.335,2.622,7.827,7.827,0,0,0,1.5.853,1.028,1.028,0,0,0,.41.087.873.873,0,0,0,.465-.129,1.105,1.105,0,0,0,.475-.909l0-.1-.168-.217a4.2,4.2,0,0,0-.417-.5C1158.37,608.647,1158.064,608.356,1157.759,608.064Z" transform="translate(4.696 2.403)" fill="#10ad48"/>
    <path id="路径_14728" data-name="路径 14728" d="M1150.933,581.835c.375.647.745,1.278,1.165,1.887a4.787,4.787,0,0,0,.889.945,1.3,1.3,0,0,0,.828.321,1.094,1.094,0,0,0,.725-.278,1.123,1.123,0,0,0,.216-1.462c-.536-.918-1.119-1.827-1.684-2.706l-.135-.21a1.363,1.363,0,0,0-.5-.427,1.172,1.172,0,0,0-1.148.01,1.358,1.358,0,0,0-.639,1.16v.052l.059.172A2.759,2.759,0,0,0,1150.933,581.835Z" transform="translate(5.448 0.383)" fill="#10ad48"/>
    <path id="路径_14729" data-name="路径 14729" d="M1143.387,589.535a.948.948,0,0,0,.373.08,1.208,1.208,0,0,0,.907-.573,8.3,8.3,0,0,0,1.3-3.4l.054-.243.006-.052a1.222,1.222,0,0,0-.907-1.325,1.133,1.133,0,0,0-1.34.81c-.337,1.126-.62,2.286-.9,3.406l-.022.085A.954.954,0,0,0,1143.387,589.535Z" transform="translate(4.832 0.717)" fill="#10ad48"/>
    <path id="路径_14730" data-name="路径 14730" d="M-149.481,386.981a5.92,5.92,0,0,0-1.155.535c-.171.1-.341.189-.515.274a9.628,9.628,0,0,1-3.4,1.04,13.074,13.074,0,0,0,.915-5.169,8.577,8.577,0,0,0-2.261-6.128,4.647,4.647,0,0,0-4.693-1.567.5.5,0,0,1-.129.012c.459-1.409.935-2.579,2.69-2.394a.6.6,0,0,0,.44-.112c.069-.062.15-.124.231-.186.273-.21.555-.427.591-.737a1.455,1.455,0,0,0-.66-1.141,3.352,3.352,0,0,0-.987-.379c-.075-.021-.152-.041-.23-.064l.03-.129a7.553,7.553,0,0,0,.16-.792,1.13,1.13,0,0,0-.725-1.319,1.145,1.145,0,0,0-1.493.64,6.839,6.839,0,0,0-.536,1.381,1.359,1.359,0,0,1-1.152,1.06,18.526,18.526,0,0,0-2.255.732c-.857.333-1.24,1-.977,1.7a1.335,1.335,0,0,0,1.7.724c.284-.059.564-.133.859-.212a4.037,4.037,0,0,1-1.551,2.422,1.572,1.572,0,0,0-.543,1.5l.127,1.121c.09.788.18,1.575.256,2.364.091.95.175,1.9.26,2.851.093,1.037.185,2.074.285,3.111.083.855.455,1.362,1.106,1.5a1.267,1.267,0,0,0,1.478-1.029.61.61,0,0,1,.072-.058c.034-.026.074-.058.122-.1l.59,0c.606,0,1.264.009,1.919-.011a4.088,4.088,0,0,0,1.36-.207c.315-.123.776-.511.789-.894a1.176,1.176,0,0,0-.789-.928,9.912,9.912,0,0,0-1.979-.242c-.565-.025-1.136-.021-1.691-.015l-.332,0a.148.148,0,0,1,.066-.046c.337-.09.676-.169,1.016-.247.379-.087.759-.175,1.176-.291a4.551,4.551,0,0,0,1.349-.537,1.725,1.725,0,0,0,.51-.683c.05-.1.1-.194.155-.282l.139-.219-.225-.129c-.091-.052-.181-.115-.272-.177a1.863,1.863,0,0,0-.769-.373,4.8,4.8,0,0,0-1.494.1c-.53.089-1.056.2-1.627.324l-.506.106-.124-1.335a7.394,7.394,0,0,1,4.071-.933,1.147,1.147,0,0,0,1.042-.573.9.9,0,0,0,.084-.569,3.235,3.235,0,0,1,.191.414,10.32,10.32,0,0,1-.443,8.027,1.7,1.7,0,0,1-1.491,1.041,19.782,19.782,0,0,1-6.778-.125,12.865,12.865,0,0,0-1.973-.2h-.019a1.117,1.117,0,0,0-1.129.993,1.179,1.179,0,0,0,.731,1.312,2.508,2.508,0,0,0,.69.21c.5.074,1.006.162,1.509.25a22.5,22.5,0,0,0,3.862.447,9.554,9.554,0,0,0,1.418-.1c3.2-.474,6.326-1.148,8.69-1.681a6.956,6.956,0,0,0,2.055-.984c.146-.091.292-.182.438-.269a2.764,2.764,0,0,0,.993-1.01,1.415,1.415,0,0,0,.027-1.309A1.375,1.375,0,0,0-149.481,386.981Zm-10.948-7.859a15.782,15.782,0,0,0-1.552.562q-.252.1-.506.2l-.033-.03c.019-.044.037-.089.056-.133a1.535,1.535,0,0,1,.289-.513,2.587,2.587,0,0,1,.693-.4c.089-.041.178-.082.264-.125,1.6-.8,2.583-.631,3.62.667a2.1,2.1,0,0,0-.952-.466A4.583,4.583,0,0,0-160.429,379.122Z" transform="translate(1302.721 236.076)" fill="#10ad48"/>
  </g>
</svg>
