<svg id="组_47246" data-name="组 47246" xmlns="http://www.w3.org/2000/svg" width="492.863" height="45.72" viewBox="0 0 492.863 45.72">
  <g id="组_47244" data-name="组 47244" transform="translate(0 2.972)">
    <g id="组_47243" data-name="组 47243">
      <path id="路径_14351" data-name="路径 14351" d="M390.29,373.643H371V356.654h-8.545v42.113H371v-17.1H390.29v17.1h8.544V356.654H390.29Z" transform="translate(-362.452 -356.648)" fill="#231815"/>
      <path id="路径_14352" data-name="路径 14352" d="M452.91,380.758c0,6.848-3.4,10.5-9.572,10.5-6.209,0-9.629-3.76-9.629-10.795V356.679h-8.544v24.078c0,11.846,6.582,18.639,18.058,18.639,11.586,0,18.23-6.92,18.23-18.988V356.654H452.91Z" transform="translate(-376.939 -356.648)" fill="#231815"/>
      <path id="路径_14353" data-name="路径 14353" d="M576.293,385.61l-9.562-28.963h-6.973L550.2,385.61l-9.3-28.939H531.8l14.675,42.094h7.077l9.576-27.652,9.573,27.652h7.135l14.639-42.094h-8.86Z" transform="translate(-401.571 -356.647)" fill="#231815"/>
      <path id="路径_14354" data-name="路径 14354" d="M630.691,380.652h15.542v-7.671H630.691v-8.62h22.559v-7.671H622.262v42.057h31.8v-7.67H630.691Z" transform="translate(-422.467 -356.657)" fill="#231815"/>
      <rect id="矩形_15048" data-name="矩形 15048" width="8.429" height="42.057" transform="translate(241.786 0.003)" fill="#231815"/>
      <path id="路径_14355" data-name="路径 14355" d="M509.816,389.977l3.781,8.765h8.955l-18.485-42.088h-7.529l-18.552,42.088h8.721l3.836-8.765Zm-9.657-22.666,6.48,15.073H493.721Z" transform="translate(-389.14 -356.648)" fill="#231815"/>
    </g>
  </g>
  <g id="组_47245" data-name="组 47245" transform="translate(275.613 0)">
    <path id="路径_14356" data-name="路径 14356" d="M728.2,370.828q-.7-1.707-1.493-4.036t-1.3-4.006q.112,1.619.2,4.57t.084,5.611v25.687h-4.831V356.77h6.925l10.638,26.265a76.693,76.693,0,0,1,3.3,9.43q1.227-3.906,3.49-9.344l10.861-26.352h6.757v41.885h-5.193V372.968q0-3.557.391-10.182a92.952,92.952,0,0,1-3.211,8.88l-11.224,27.047h-4.1Z" transform="translate(-720.854 -353.703)" fill="#231815"/>
    <path id="路径_14357" data-name="路径 14357" d="M804.929,401.731a29.313,29.313,0,0,1-.447-4.309,13.877,13.877,0,0,1-4.37,3.471,12.6,12.6,0,0,1-5.961,1.417,10.224,10.224,0,0,1-4.663-1.041,7.771,7.771,0,0,1-3.267-3.1,9.755,9.755,0,0,1-1.2-5,9.034,9.034,0,0,1,3.128-7.189q3.127-2.7,10.387-2.7a43.465,43.465,0,0,1,5.779.405V382.9q0-4.8-1.87-6.74a6.96,6.96,0,0,0-5.249-1.938,17.5,17.5,0,0,0-4.649.665,24.125,24.125,0,0,0-4.286,1.591l-.894-4.078a22.588,22.588,0,0,1,4.538-1.576,24.324,24.324,0,0,1,6.044-.738,13.848,13.848,0,0,1,6.157,1.244,8.571,8.571,0,0,1,3.937,4.223,19.049,19.049,0,0,1,1.411,8.042V395.86q0,1.937.223,5.871Zm-4.537-4.874a11.619,11.619,0,0,0,3.923-3.11v-6.711a45.987,45.987,0,0,0-5.165-.318q-5,0-6.939,1.677a5.661,5.661,0,0,0-1.94,4.513,5.14,5.14,0,0,0,1.382,3.963,5.289,5.289,0,0,0,3.727,1.273A10.854,10.854,0,0,0,800.392,396.857Z" transform="translate(-735.676 -356.779)" fill="#231815"/>
    <path id="路径_14358" data-name="路径 14358" d="M829.657,397.847q-2.135-2.256-2.136-7.492V372.622h-3.964l.7-3.615,3.434-.521.391-7.2,4.523-.753v7.955h8.935l-.7,4.137H832.6v17.212a7.305,7.305,0,0,0,1.117,4.513,4.171,4.171,0,0,0,3.49,1.418,13.356,13.356,0,0,0,4.3-.9l.893,3.731a15.29,15.29,0,0,1-2.959,1.071,14.453,14.453,0,0,1-3.63.433A8.075,8.075,0,0,1,829.657,397.847Z" transform="translate(-744.578 -354.572)" fill="#231815"/>
    <path id="路径_14359" data-name="路径 14359" d="M876.075,386.4H856.056q.056,5.815,2.555,8.721t7.218,2.908a19.242,19.242,0,0,0,8.46-2l1.2,3.818a21.659,21.659,0,0,1-4.789,1.823,24.212,24.212,0,0,1-5.878.636,14.614,14.614,0,0,1-7.636-1.879,11.816,11.816,0,0,1-4.746-5.425,20.518,20.518,0,0,1-1.606-8.518,21.283,21.283,0,0,1,1.676-8.824,12.756,12.756,0,0,1,4.676-5.641,12.461,12.461,0,0,1,6.91-1.938,10.969,10.969,0,0,1,6.715,2,11.752,11.752,0,0,1,3.978,5.25,19.088,19.088,0,0,1,1.285,7.073Zm-5.165-3.76q-.279-4.282-2.108-6.437a6.1,6.1,0,0,0-4.9-2.155,6.537,6.537,0,0,0-5.04,2.185,11.682,11.682,0,0,0-2.582,6.407Z" transform="translate(-750.879 -356.779)" fill="#231815"/>
    <path id="路径_14360" data-name="路径 14360" d="M893,356.77h10.163q7.37,0,11.252,3.138t3.881,9.1a14.025,14.025,0,0,1-1.83,7.246,12.355,12.355,0,0,1-5.123,4.8,16.281,16.281,0,0,1-7.539,1.693,23.891,23.891,0,0,1-5.557-.665v16.574H893Zm17.409,19.163a8.707,8.707,0,0,0,2.61-6.725q0-4.252-2.555-6.161t-7.413-1.909h-4.8v16.72a25.266,25.266,0,0,0,4.579.492Q907.8,378.349,910.409,375.933Z" transform="translate(-760.619 -353.703)" fill="#231815"/>
    <path id="路径_14361" data-name="路径 14361" d="M949.662,401.731a29.193,29.193,0,0,1-.447-4.309,13.878,13.878,0,0,1-4.369,3.471,12.6,12.6,0,0,1-5.961,1.417,10.224,10.224,0,0,1-4.663-1.041,7.78,7.78,0,0,1-3.267-3.1,9.756,9.756,0,0,1-1.2-5,9.033,9.033,0,0,1,3.127-7.189q3.126-2.7,10.386-2.7a43.469,43.469,0,0,1,5.78.405V382.9q0-4.8-1.871-6.74a6.958,6.958,0,0,0-5.248-1.938,17.507,17.507,0,0,0-4.649.665,24.14,24.14,0,0,0-4.286,1.591L932.1,372.4a22.57,22.57,0,0,1,4.536-1.576,24.332,24.332,0,0,1,6.045-.738,13.842,13.842,0,0,1,6.156,1.244,8.566,8.566,0,0,1,3.937,4.223,19.064,19.064,0,0,1,1.41,8.042V395.86q0,1.937.224,5.871Zm-4.537-4.874a11.629,11.629,0,0,0,3.923-3.11v-6.711a45.971,45.971,0,0,0-5.165-.318q-5,0-6.938,1.677A5.662,5.662,0,0,0,935,392.909a5.143,5.143,0,0,0,1.383,3.963,5.288,5.288,0,0,0,3.727,1.273A10.856,10.856,0,0,0,945.125,396.857Z" transform="translate(-769.109 -356.779)" fill="#231815"/>
    <path id="路径_14362" data-name="路径 14362" d="M990.9,397.734q-.334-1.793-.531-3.877a13.076,13.076,0,0,1-4.076,3.255,11.422,11.422,0,0,1-5.277,1.2,10.314,10.314,0,0,1-9.855-6.465,20.406,20.406,0,0,1-1.564-8.576,23.178,23.178,0,0,1,1.647-9.113A13.2,13.2,0,0,1,976,368.186a12.945,12.945,0,0,1,7.412-2.1,18.867,18.867,0,0,1,3.532.348,26.785,26.785,0,0,1,3.253.81V353.36l5.137-.578v37.113q0,3.819.224,7.839Zm-4.16-5.019a10.989,10.989,0,0,0,3.462-2.878V371.324a26.977,26.977,0,0,0-3.225-.825,16.583,16.583,0,0,0-3.113-.332,7.792,7.792,0,0,0-4.732,1.461,9.246,9.246,0,0,0-3.085,4.353,20.216,20.216,0,0,0-1.089,7.087q0,5.7,2,8.288a6.218,6.218,0,0,0,5.152,2.589A9.382,9.382,0,0,0,986.739,392.716Z" transform="translate(-778.312 -352.782)" fill="#231815"/>
  </g>
</svg>
