<svg xmlns="http://www.w3.org/2000/svg" width="46" height="92" viewBox="0 0 46 92">
  <g id="组_34435" data-name="组 34435" transform="translate(-876 -4064)">
    <rect id="矩形_15051" data-name="矩形 15051" width="46" height="92" transform="translate(876 4064)" fill="#fff"/>
    <g id="组_34434" data-name="组 34434" transform="translate(-2581.742 1907.857) rotate(-45)" opacity="0.3">
      <path id="路径_2451" data-name="路径 2451" d="M1.49,0A1.49,1.49,0,0,1,2.98,1.49v9.534a1.49,1.49,0,0,1-2.979,0V1.49A1.49,1.49,0,0,1,1.49,0Z" transform="translate(883 4027)" fill="#211d1e"/>
      <path id="路径_2452" data-name="路径 2452" d="M1.49,0A1.49,1.49,0,0,1,2.98,1.49v9.534a1.49,1.49,0,0,1-2.979,0V1.49A1.49,1.49,0,0,1,1.49,0Z" transform="translate(895.513 4036.534) rotate(90)" fill="#211d1e"/>
    </g>
    <g id="组_34434-2" data-name="组 34434" transform="translate(-2581.742 1861.857) rotate(-45)" opacity="0.3">
      <path id="路径_2451-2" data-name="路径 2451" d="M1.49,0A1.49,1.49,0,0,1,2.98,1.49v9.534a1.49,1.49,0,0,1-2.979,0V1.49A1.49,1.49,0,0,1,1.49,0Z" transform="translate(883 4027)" fill="#211d1e"/>
      <path id="路径_2452-2" data-name="路径 2452" d="M1.49,0A1.49,1.49,0,0,1,2.98,1.49v9.534a1.49,1.49,0,0,1-2.979,0V1.49A1.49,1.49,0,0,1,1.49,0Z" transform="translate(895.513 4036.534) rotate(90)" fill="#211d1e"/>
    </g>
  </g>
</svg>
