<svg xmlns="http://www.w3.org/2000/svg" width="80.238" height="32.709" viewBox="0 0 80.238 32.709">
  <g id="组_47313" data-name="组 47313" transform="translate(322.835 -302.001)">
    <path id="路径_14590" data-name="路径 14590" d="M-264.5,326.672c-.08-.053-.161-.106-.236-.162q-2.456-1.781-4.91-3.581l-1.38-1.009.293-1.4c.255-1.217.508-2.424.773-3.629.038-.173.067-.351.1-.529.127-.761.236-1.418,1-1.788a1.13,1.13,0,0,0,.331-1.189,1.322,1.322,0,0,0-.97-.613,1.969,1.969,0,0,0-.806.12c-.082.023-.162.047-.241.067-.666.162-1.331.325-2.055.5l-.415.1c.068-.2.12-.352.178-.5.041-.109.086-.215.133-.323.065-.152.131-.305.185-.462.463-1.355-.189-1.832-.618-2-.348-.131-1.223-.3-1.821,1.053-.589,1.333-1.195,2.765-1.905,4.506a4.154,4.154,0,0,0-.318,1.295,1.136,1.136,0,0,0,.439.942,1.252,1.252,0,0,0,.976-.03,1.151,1.151,0,0,0,.558-.47,3.4,3.4,0,0,1,2.523-1.28l.309-.062c-.08.32-.157.635-.232.945a31.816,31.816,0,0,1-.907,3.236l-.514-.274c-.806-.434-1.549-.832-2.294-1.226l-.2-.106a5.42,5.42,0,0,0-.846-.4,1.223,1.223,0,0,0-1.631.6,1.2,1.2,0,0,0,.441,1.557,8.594,8.594,0,0,0,.855.539c.117.068.236.136.352.206l2.942,1.776q-.113.267-.216.529a6.981,6.981,0,0,1-1.269,2.308l-2.207-.887c.115-.161.231-.324.352-.484.1-.127.2-.253.3-.378.163-.205.326-.411.476-.625.6-.861.213-1.375-.073-1.606-.482-.389-1.017-.308-1.588.241-.117.114-.232.23-.346.346-.146.148-.29.3-.442.437-.213.2-.43.383-.693.61,0-.311.006-.554-.009-.794a2.136,2.136,0,0,0-2.03-2.194,8.584,8.584,0,0,0-1.2-.047c-.211,0-.423,0-.633,0-.177-.006-.353-.025-.562-.046l.085-.136c.975-1.565,1.816-2.916,3.8-3.111a4.392,4.392,0,0,0,2.073-1.091c.141-.109.282-.217.42-.316a1.3,1.3,0,0,0,.243-1.28c-.137-.372-.776-.492-1.06-.492H-279a5.645,5.645,0,0,0-1.074.154l.66-.969c.843-1.237,1.612-2.366,2.375-3.5l.059-.086a3.4,3.4,0,0,0,.558-1.1,1.229,1.229,0,0,0-.4-1.1,1.242,1.242,0,0,0-1.163-.054,2.478,2.478,0,0,0-.748.72l-.105.133c-.32.4-.628.806-.972,1.259l-.229.3a1.7,1.7,0,0,0-1.907-.51,2.8,2.8,0,0,1-.629.072v-.7c0-.671,0-1.307,0-1.945.006-1.1-.371-1.694-1.119-1.768a1.123,1.123,0,0,0-1.021.414,2.374,2.374,0,0,0-.424,1.263c-.01.1-.012.2-.017.3,0,.085,0,.171-.012.256l-.257,2.742-.143.048c-.189.063-.357.119-.529.162-.135.033-.273.057-.411.08a5.286,5.286,0,0,0-.555.116c-.974.28-1.46.9-1.3,1.664.147.708.745,1.04,1.683,1.034.266,0,.533,0,.832,0h.138l-.28,2.176-.33.041a9.83,9.83,0,0,0-.99.154,1.326,1.326,0,0,0-1.182,1.446,1.312,1.312,0,0,0,1.4,1.231c.273.012.549.01.914.007h.129c-.2.28-.388.552-.576.818-.646.917-1.258,1.783-1.83,2.652a11.262,11.262,0,0,0-.984,1.889,1.177,1.177,0,0,0,.414,1.569,1.171,1.171,0,0,0,1.556-.4c.332-.381.636-.782.9-1.137l.215-.285h3.434c0,.044,0,.088,0,.13a4.435,4.435,0,0,0,.016.719,3.081,3.081,0,0,1-1.376,3.152,1.879,1.879,0,0,0-.892,1.781,2.092,2.092,0,0,0,1.575,1.506,8.112,8.112,0,0,0,2.524.426,6.72,6.72,0,0,0,3.965-1.3l.229-.168a3.051,3.051,0,0,1,.867-.51,5.471,5.471,0,0,0,3.3-2.921c.177-.321.339-.652.523-1.028l.156-.315.943.706c.926.694,1.8,1.35,2.71,1.978a13.2,13.2,0,0,0,2.455,1.4,2.146,2.146,0,0,0,1.664.146,1,1,0,0,0,.541-.605C-263.4,327.395-264.035,326.977-264.5,326.672Zm-14.9,1.154a4.118,4.118,0,0,1-2.234.673c.631-.615.89-.808,1.311-.808a4.773,4.773,0,0,1,.8.112Zm-3.656-13.82.2-1.637,1.295-.415Z" transform="translate(7.838 0.699)" fill="#1e2022"/>
    <path id="路径_14591" data-name="路径 14591" d="M-305.886,314.726c-.539-.011-1.079-.009-1.668-.006h-.344a7.182,7.182,0,0,0,.52-.843c.09-.182.184-.363.278-.545a11.021,11.021,0,0,0,.881-2.035,3.341,3.341,0,0,0-.405-3.033,3.187,3.187,0,0,0-2.746-1.055,19.642,19.642,0,0,0-4.017.718c-1,.257-1.967.578-2.988.918-.36.12-.72.241-1.087.36h0a1.2,1.2,0,0,0-.308-.562c-.318-.31-.682-.67-1.035-.583a1.766,1.766,0,0,0-.846.634c-.057.063-.112.126-.169.184a.724.724,0,0,0-.161.436l-.32,1.669q-.617,3.184-1.222,6.372l-.026.147c-.073.421-.122.63-.465.781a1.35,1.35,0,0,0-.749.745,1.269,1.269,0,0,0,.073,1,1.4,1.4,0,0,0,1.861.688l.272-.077c1.16-.33,2.322-.66,3.486-.976a3.545,3.545,0,0,1,.5-.085v6.1l-.347.038c-.489.054-1,.111-1.522.154-.43.035-1.081.088-1.18.835-.1.764.571,1.034.893,1.164a4.454,4.454,0,0,0,3.042.22,1.02,1.02,0,0,1,1.044.174,3.76,3.76,0,0,0,2.4.755q.208,0,.426-.015a9.4,9.4,0,0,0,5.575-2.369,2.245,2.245,0,0,0,.672-.869,1.314,1.314,0,0,0-.1-1.142,1.327,1.327,0,0,0-1.1-.322,2.525,2.525,0,0,0-.777.305c-.1.053-.2.107-.308.153l-.791.352c-.7.313-1.42.635-2.139.921a2.87,2.87,0,0,1-1.75.143.8.8,0,0,1,.031-.089,18.989,18.989,0,0,0,3.441-5.679,3.079,3.079,0,0,0,.415-2.472l.084-.016c.235-.047.472-.093.709-.133s.483-.077.724-.114c.492-.073,1-.148,1.494-.269.9-.221,1.379-.819,1.238-1.563A1.35,1.35,0,0,0-305.886,314.726Zm-7.722,3.991.261-.064c.344-.085.713-.178,1.087-.248.356-.065.717-.111,1.163-.168l.268-.035c-.2.405-.385.809-.571,1.207a18.669,18.669,0,0,1-2.4,4.182A10.164,10.164,0,0,1-313.609,318.717Zm.5-3.1.044-.293c.056-.371.107-.718.162-1.064a1.3,1.3,0,0,0-.84-1.646.967.967,0,0,0-.762.052,1.648,1.648,0,0,0-.757,1.013l-.036.107a2.5,2.5,0,0,0-.168.785c0,1.451-.722,2.218-2.285,2.414a4.7,4.7,0,0,0-.688.158c-.137.038-.274.078-.36.105a.211.211,0,0,1-.047-.016l.18-1.054c.215-1.266.436-2.577.7-3.858a.941.941,0,0,1,.535-.519c2.718-.8,4.97-1.43,7.084-1.967a3.512,3.512,0,0,1,1.128-.015c.158.012.325.026.505.036-.044.184-.082.357-.117.518a6.289,6.289,0,0,1-.329,1.158c-.175.394-.394.785-.605,1.161a12.065,12.065,0,0,0-.728,1.446C-310.94,315.27-311.737,315.556-313.108,315.618Z" transform="translate(0 1.226)" fill="#1e2022"/>
    <path id="路径_14592" data-name="路径 14592" d="M-258.82,316.079c.293.471.6.962.908,1.451a1.19,1.19,0,0,0,1.47.649c.641-.22.895-.744.751-1.557a7.337,7.337,0,0,0-1.882-3.688,1.816,1.816,0,0,0-1.548-.746,1.95,1.95,0,0,0-1.367,1.228,5.217,5.217,0,0,1-3,2.592c.233-.481.452-.971.666-1.448.925-2.071,1.8-4.027,3.818-5.26l.069-.041a1.2,1.2,0,0,0,.456-.392,1.24,1.24,0,0,0,.256-.943,1.072,1.072,0,0,0-.859-.629,6.69,6.69,0,0,0-1.862.163c-1.333.348-2.679.743-3.977,1.124l-1.122.329a2.9,2.9,0,0,0-.7.3,1.239,1.239,0,0,0-.613,1.489,1.259,1.259,0,0,0,1.333.909,3.711,3.711,0,0,0,.741-.132c.085-.02.172-.042.257-.061.34-.074.68-.151,1.033-.231-.11.184-.222.367-.335.549-.327.534-.666,1.085-.956,1.658a14.848,14.848,0,0,0-1.155,2.727,2.331,2.331,0,0,0,1.58,2.965,4.346,4.346,0,0,0,.449.151c.109,1.415.362,1.637,1.753,1.768.205.02.411.032.618.046a10.874,10.874,0,0,1,1.165.119c.605.108.908.321.987.722l-3.521.56c0-.041-.009-.08-.012-.119a1.58,1.58,0,0,0-.206-.766c-.132-.19-.6-.812-1.1-.812h0c-.376,0-.692.345-.972.649l-.119.128a1.026,1.026,0,0,0-.174.717l-.009.834c-.017,1.694-.035,3.446-.02,5.17a2.251,2.251,0,0,0,.374,1.186,1.28,1.28,0,0,0,1.033.568,1.6,1.6,0,0,0,1.006-.728,2.751,2.751,0,0,0,.288-.883l.027-.132,4.355-.843c-.028.372-.033.741-.037,1.1a5.035,5.035,0,0,1-.719,3.129c-.612.838-.267,1.289-.006,1.483a1.857,1.857,0,0,0,1.012.336.9.9,0,0,0,.394-.082,3.5,3.5,0,0,0,1.417-1.243,3.926,3.926,0,0,0,.513-1.853,47.058,47.058,0,0,0-.014-5.18,15.368,15.368,0,0,0-.776-3.589,3.981,3.981,0,0,0-3.772-2.87c-.3-.023-.6-.056-.895-.09l2.809-2.8Zm-4.512,9.13c.03-.054.13-.1.292-.131.93-.179,1.862-.355,2.833-.538l.954-.182.146.87-4.207.246C-263.367,325.3-263.344,325.23-263.333,325.209Z" transform="translate(13.054 1.246)" fill="#1e2022"/>
    <path id="路径_14593" data-name="路径 14593" d="M-289.17,310.9c-1.532-.864-3.078-1.705-4.65-2.563l-1.628-.888v-.012c0-.15,0-.315,0-.479a1.219,1.219,0,0,0-1.021-1.242,1.262,1.262,0,0,0-1.418.765c-.214.415-.4.848-.576,1.268l-.063.147a13.531,13.531,0,0,1-2.844,4.47c-.718.7-1.444,1.395-2.17,2.089l-.745.713c-.079.077-.168.148-.257.22a1.932,1.932,0,0,0-.583.633,1.737,1.737,0,0,0-.125,1.355.9.9,0,0,0,.555.5,1.32,1.32,0,0,0,1.035-.18c.366-.216.706-.452,1.066-.7.1-.072.206-.143.313-.215a4.906,4.906,0,0,0,3.3.621,6.5,6.5,0,0,1,2.052.111,1.729,1.729,0,0,1-1.418,2.107,3.01,3.01,0,0,0-.833.382c-.754.462-1,1.037-.739,1.705a1.292,1.292,0,0,0,1.685.777c.2-.051.392-.1.626-.157l.041-.01-.279,3.654-.761.164c-.652.141-1.268.273-1.882.411-1.318.3-1.89.892-1.7,1.764a1.338,1.338,0,0,0,1.486,1.028,4.427,4.427,0,0,0,.787-.083q1.184-.209,2.37-.414c1.27-.22,2.54-.441,3.809-.673a15.963,15.963,0,0,0,5.093-1.675c.362-.205,1.116-.633.825-1.509-.12-.363-.477-.943-1.574-.75-.546.1-1.089.232-1.612.365-.279.07-.559.141-.839.205-.822.188-1.645.372-2.538.572l-.769.172c.022-.2.046-.385.067-.568a15.6,15.6,0,0,0,.146-1.656c.026-1.7.308-2.815,1.667-3.518a1.609,1.609,0,0,0,.819-.9,1.078,1.078,0,0,0-.129-.857c-.392-.662-1.006-.461-1.412-.329a.835.835,0,0,1-.241.054.566.566,0,0,1,0-.4.684.684,0,0,1,.432-.289l.124-.038c.52-.161,1.393-.428,1.2-1.4-.157-.823-.9-.872-1.4-.907-.112-.006-.224-.014-.327-.028a8.14,8.14,0,0,0-1.3-.052l-.266,0c-.478,0-.958.011-1.436.018-.638.01-1.276.02-1.914.02a2.571,2.571,0,0,1-.493-.043l3.282-4.7,1.191.7c1.64.96,3.315,1.941,4.994,2.92l.174.1a7.429,7.429,0,0,0,.964.507,1.26,1.26,0,0,0,1.577-.329,1.258,1.258,0,0,0-.133-1.748A7.794,7.794,0,0,0-289.17,310.9Z" transform="translate(4.121 0.87)" fill="#1e2022"/>
    <path id="路径_14594" data-name="路径 14594" d="M-261.914,307.953l.019,0h.019c1.255-.006,1.6-.508,1.673-.928a1.229,1.229,0,0,0-.85-1.32c-.561-.293-1.112-.607-1.662-.921-.327-.185-.655-.372-.984-.555-.063-.035-.127-.073-.191-.112a1.392,1.392,0,0,0-.812-.306,2.006,2.006,0,0,0-1.262.463,1.05,1.05,0,0,0-.324.8,1.165,1.165,0,0,0,.419.844A7.878,7.878,0,0,0-261.914,307.953Z" transform="translate(13.322 0.426)" fill="#1e2022"/>
    <path id="路径_14595" data-name="路径 14595" d="M-317.511,304.593c.537.424,1.107.817,1.658,1.195.28.193.56.384.835.582a1.859,1.859,0,0,0,1.024.426,1.03,1.03,0,0,0,.685-.268,1.385,1.385,0,0,0,.117-1.842,1.879,1.879,0,0,0-.5-.63c-.806-.615-1.635-1.222-2.463-1.8a1.535,1.535,0,0,0-.505-.208c-.036-.01-.065-.016-.089-.025l-.084-.016a1.494,1.494,0,0,0-1.247.513,1.063,1.063,0,0,0-.2.945A2.244,2.244,0,0,0-317.511,304.593Z" transform="translate(1.066 0)" fill="#1e2022"/>
  </g>
</svg>
