<svg xmlns="http://www.w3.org/2000/svg" width="95.455" height="54.049" viewBox="0 0 95.455 54.049">
  <g id="组_47316" data-name="组 47316" transform="translate(224.309 -339.887)">
    <g id="组_47314" data-name="组 47314">
      <path id="路径_14596" data-name="路径 14596" d="M-212.858,353.613a5.023,5.023,0,0,1,2.094-2.769l.209-.174a13.15,13.15,0,0,0,1.572-1.612,6.542,6.542,0,0,0,.968-1.458,2.265,2.265,0,0,0,0-2.177,2.249,2.249,0,0,0-1.927-.976,8.81,8.81,0,0,0-1.859.16c-.7.114-1.39.254-2.14.4l-.458.09c.074-.114.138-.211.205-.307.094-.134.193-.266.291-.4.164-.219.327-.438.474-.667a1.2,1.2,0,0,0-.085-1.622,1.177,1.177,0,0,0-1.727.03c-.058.05-.119.1-.185.147,0-.036,0-.072-.005-.108a9.982,9.982,0,0,0-.1-1.122,1.241,1.241,0,0,0-1.3-1.166,1.213,1.213,0,0,0-1.189,1.273c-.021.4-.016.8-.012,1.194l0,3.246-1.982-1.518c-.092-.07-.183-.144-.273-.218a5.514,5.514,0,0,0-.684-.5,1.108,1.108,0,0,0-1.488.262,1.131,1.131,0,0,0,.005,1.509,4.686,4.686,0,0,0,.792.754c.456.358.92.7,1.438,1.091l.337.252-2,.891-.059-.029c-.032-.016-.06-.027-.06-.023a1.275,1.275,0,0,0-1.467-.666,1.369,1.369,0,0,0-.846,1.507l.01,1.551c.006.915.011,1.831.022,2.747v.083a1.632,1.632,0,0,0,.143.8,1.27,1.27,0,0,0,.822.666,1.172,1.172,0,0,0,.957-.551,4.386,4.386,0,0,0,.408-1.44c.062-.513.083-1.026.106-1.571.009-.191.016-.386.027-.587l.8-.336q1.254-.526,2.514-1.055l.182-.077a1.492,1.492,0,0,1,1.346-.139,1.069,1.069,0,0,0,.728-.03.647.647,0,0,0,.4-.309c.341-.768.987-.894,1.735-1.04.168-.033.335-.066.5-.105l.364-.092a8.449,8.449,0,0,1,2.618-.374,22.7,22.7,0,0,1-2.549,3.134l-.929,0c-.7,0-1.32,0-1.941.006-.11,0-.22.009-.327.015a1.539,1.539,0,0,1-1.319-.332.914.914,0,0,0-.889-.247,1.227,1.227,0,0,0-.808.873,4.017,4.017,0,0,0-.131,1.1c-.012.874-.029,1.962,0,3.005l.005.25c.011.781.025,1.752,1.141,2.1a.661.661,0,0,1,.056.108c.02.041.04.083.06.119l.756,1.313-.012.008c-.169.113-.365.244-.563.37l-.956.6c-.563.354-1.126.708-1.683,1.071a1.6,1.6,0,0,0-.757.854,6.864,6.864,0,0,1-.509-.5,1.142,1.142,0,0,0-1.545-.4,1.041,1.041,0,0,0-.338,1.48c.6,1.041,1.129,1.882,1.672,2.645a1.579,1.579,0,0,0,1.294.7,1.6,1.6,0,0,0,.474-.073,1.256,1.256,0,0,0,.8-.713,1.108,1.108,0,0,0-.373-1.026,2.725,2.725,0,0,1-.754-.777,1.943,1.943,0,0,0,1.391-.362c.632-.389,1.275-.762,1.952-1.154l.629-.365.009.032a2.3,2.3,0,0,1,.085.388c.061.61.118,1.22.175,1.831.084.9.167,1.8.263,2.7l.008.075a3.132,3.132,0,0,0,.318,1.273,1.509,1.509,0,0,0,1.1.679h.016a1.19,1.19,0,0,0,.921-.833,12.7,12.7,0,0,0,.166-2.232c0-.478-.031-.956-.063-1.418-.01-.136-.019-.271-.028-.4l.25-.068c.269-.072.5-.133.717-.216a9.677,9.677,0,0,0,4.437-3.3,2.063,2.063,0,0,0,.358-2.123,2.115,2.115,0,0,0-1.91-1.1,6.571,6.571,0,0,0-1.871.186c-.545.128-1.084.3-1.6.472-.283.092-.566.184-.852.269.346-.283.641-.526.926-.78.821-.733.537-1.274.377-1.473-.233-.289-.155-.469-.024-.767A2.275,2.275,0,0,0-212.858,353.613Zm-1.464,6.253a7.056,7.056,0,0,1,2.912-1.023,6.444,6.444,0,0,1-2.7,1.932Zm-.83-7.361a6.73,6.73,0,0,1-1.909,2.665v-2.55l.239-.032c.269-.036.489-.065.71-.076.291-.015.584-.012.882-.007Z" fill="#2c89e5"/>
      <path id="路径_14597" data-name="路径 14597" d="M-146.273,349.4a9.089,9.089,0,0,0-2.109-4.123,5.176,5.176,0,0,0-4.867-1.886c-1.642.3-3.284.734-4.871,1.154l-.331.088a1.261,1.261,0,0,0-1.082,1.506c.164.655.776.974,1.642.856.309-.043.616-.1.952-.165l.227-.042.164,2.153-.295.022c-.35.026-.666.05-.98.087-1.223.144-1.393.824-1.386,1.215.012.682.548,1.117,1.436,1.163.384.02.769.017,1.158.011l.306,0,.23,1.713-.33.1c-.365.106-.709.207-1.044.335a1.265,1.265,0,0,0-.93,1.6,1.247,1.247,0,0,0,1.53.814c.279-.041.559-.088.862-.14l.167-.029.061.937c.061.941.119,1.825.182,2.709l.025.369a10.413,10.413,0,0,0,.165,1.472c.29,1.378,1.011,1.587,1.421,1.587a1.111,1.111,0,0,0,.137-.008c1.011-.116,1.05-1.159.99-1.934q-.151-2.028-.294-4.065l-.127-1.773.07-.046c.139-.09.265-.171.385-.26l.14-.1a2.457,2.457,0,0,0,.5-.431,1.152,1.152,0,0,0,.271-1.135,1.158,1.158,0,0,0-.964-.669,4.758,4.758,0,0,0-.637-.041l-.125,0-.053-.9.012,0a1.225,1.225,0,0,0,.567.089c.5-.085.954-.187,1.057-.5a1.578,1.578,0,0,0-.215-1.266,2.182,2.182,0,0,0-.85-.6l-.195-.1a4.227,4.227,0,0,0-.606-.241l-.132-.046-.267-2.6c2.015-.76,3.394-.333,4.454,1.376a7.437,7.437,0,0,1,.8,1.705,17.324,17.324,0,0,1,.76,7.094,9.436,9.436,0,0,1-.815,2.769c-.352.781-.622.894-1.6.672a1.125,1.125,0,0,0-1.4.466,1.159,1.159,0,0,0,.448,1.558,3.1,3.1,0,0,0,.991.522,3.036,3.036,0,0,0,3.381-1.141,7.558,7.558,0,0,0,1.647-4.329A21.722,21.722,0,0,0-146.273,349.4Z" fill="#2c89e5"/>
      <path id="路径_14598" data-name="路径 14598" d="M-194.674,356.441a2.657,2.657,0,0,0-2.828-.917c-.716.128-1.433.306-2.125.479-.391.1-.78.2-1.173.284a3.237,3.237,0,0,1-.476.059c.244-1,.31-1.207.56-1.482a1.167,1.167,0,0,0,.766.5,1.434,1.434,0,0,0,1.016-.54,7.885,7.885,0,0,0,2.425-5.51,2.475,2.475,0,0,0-.75-1.955,2.519,2.519,0,0,0-2.049-.566,17.837,17.837,0,0,0-3.429.895,1.741,1.741,0,0,0-.941,1.072c-.088.31-.089.879.888,1.216a.811.811,0,0,1,.151.1l.033.026a20.379,20.379,0,0,1-.919,5.014l-.089.273a8.939,8.939,0,0,0-.4,1.518,2.04,2.04,0,0,0,.525,1.851,2.029,2.029,0,0,0,1.877.358c.55-.128,1.093-.307,1.619-.479.333-.11.667-.22,1-.317a.807.807,0,0,1,.1-.022l-5.073,2.088c-.12.049-.242.094-.363.139a5.265,5.265,0,0,0-.741.313,1.129,1.129,0,0,0-.6,1.381,1.139,1.139,0,0,0,1.256.836,3.429,3.429,0,0,0,1.079-.282c1.107-.484,2.21-.982,3.312-1.478l1.309-.589.007,0-.027.022c-.479.394-.976.8-1.482,1.17l-.075.054c-.324.23-.813.58-.543,1.15a1.715,1.715,0,0,0,1.029.784,1.776,1.776,0,0,0,.47.064,2.729,2.729,0,0,0,1.657-.725,11.118,11.118,0,0,0,3.048-3.813A2.723,2.723,0,0,0-194.674,356.441Zm-5.49-3.834-.25.6c-.061.148-.127.294-.195.439v0c.094-1.083.21-2.164.33-3.281l.1-.972,1.068-.213c0,.065.008.128.013.189a1.676,1.676,0,0,1-.025.636C-199.436,350.875-199.806,351.755-200.164,352.607Z" fill="#2c89e5"/>
      <path id="路径_14599" data-name="路径 14599" d="M-187.442,360.7h-.006a4.9,4.9,0,0,0-1.149.192c-.142.036-.283.071-.425.1l-1.018.222q.072-.578.142-1.132c.139-1.1.271-2.134.36-3.181.094-1.12.23-1.955,1.118-2.486a1.35,1.35,0,0,0,.414-.484,1.057,1.057,0,0,0,.186-.861,1.081,1.081,0,0,0-.688-.579,2.493,2.493,0,0,0-.419-.109l.016-.214c.023-.291.044-.558.049-.825a1.5,1.5,0,0,0-.313-1.179.855.855,0,0,0-.328-.157.908.908,0,0,1,.544.034.891.891,0,0,0,.925-.172,1.277,1.277,0,0,0,.322-1.246,1.621,1.621,0,0,0-.733-1,1.347,1.347,0,0,0-1.061-.133c-1.225.342-2.437.786-3.61,1.215-.466.17-.932.341-1.4.506a.4.4,0,0,0-.253.261c-.023.1-.058.2-.093.3a1.263,1.263,0,0,0-.093.9,1.429,1.429,0,0,0,1.118.689h.048a2.41,2.41,0,0,0,.871-.223c.129-.051.258-.1.388-.139.493-.143.988-.279,1.483-.415l.19-.053c-.036.148-.073.3-.11.444-.167.668-.34,1.359-.457,2.052a.974.974,0,0,1-.638.882,17.551,17.551,0,0,0-1.788.846,1.127,1.127,0,0,0-.585,1.518,1.156,1.156,0,0,0,1.511.588c.276-.077.545-.177.851-.291l.109-.04-.336,5.163-.223.06c-.259.068-.509.133-.756.206-.127.037-.254.072-.381.106a7.832,7.832,0,0,0-1.13.374,1.165,1.165,0,0,0-.632.648.974.974,0,0,0,.045.764,2.074,2.074,0,0,0,.95.794.625.625,0,0,0,.3.066,1.923,1.923,0,0,0,.417-.062l.087-.019c.393-.083.788-.162,1.182-.241,1.08-.217,2.2-.441,3.274-.747a9.839,9.839,0,0,0,2.374-1.156,1.158,1.158,0,0,0,.388-1.176A1.259,1.259,0,0,0-187.442,360.7Z" fill="#2c89e5"/>
      <path id="路径_14600" data-name="路径 14600" d="M-178.107,356.75c-.013-.316-.028-.634-.042-.951a30.762,30.762,0,0,0,1.551,2.669,1.937,1.937,0,0,0,1.15.635.921.921,0,0,0,.194.021c.49,0,.911-.409,1.058-1.059l.022-.1-.05-.085c-.179-.306-.357-.615-.535-.923-.547-.945-1.112-1.921-1.724-2.849-.238-.358-1.053-.261-1.35-.14a1.014,1.014,0,0,0-.387.292c-.021-.438-.041-.874-.063-1.325l-.084-1.741,5.194-1.088c.166-.036.336-.062.505-.089a4.933,4.933,0,0,0,1.182-.29,1.339,1.339,0,0,0,.769-1.074,1.366,1.366,0,0,0-.889-.987,3.518,3.518,0,0,0-1.658-.083c-2.1.437-4.242.943-6.08,1.385a1.384,1.384,0,0,0-1.105,1.492c0,.3,0,.6-.008.9-.007.348-.014.7-.008,1.045l.033,1.784c.047,2.65.1,5.391.176,8.086.032,1.121.518,1.842,1.238,1.842H-179c.732-.012,1.1-.656,1.079-1.917-.02-1.543-.086-3.11-.15-4.624Z" fill="#2c89e5"/>
      <path id="路径_14601" data-name="路径 14601" d="M-171.184,354.5a18.672,18.672,0,0,0-1.344-1.706,1.271,1.271,0,0,0-.9-.45,1.113,1.113,0,0,0-.836.341,1.256,1.256,0,0,0,0,1.733,2.811,2.811,0,0,0,.3.327l2.369,2.348c-.119.177-.238.352-.355.524-.4.6-.788,1.157-1.129,1.756a1.176,1.176,0,0,0,.072,1.2.822.822,0,0,0,.58.182,2.379,2.379,0,0,0,.576-.081,1.926,1.926,0,0,0,.675-.411c.053-.044.107-.088.161-.129a9.117,9.117,0,0,0,2.686-3.593l.323-.683c.387-.816.788-1.66,1.145-2.508a1.219,1.219,0,0,0-.588-1.647,1.2,1.2,0,0,0-1.655.531,8.593,8.593,0,0,0-.5.964q-.1.224-.213.443l-.843,1.665a1.5,1.5,0,0,0-.184-.353Z" fill="#2c89e5"/>
      <path id="路径_14602" data-name="路径 14602" d="M-167.32,360.414a4.594,4.594,0,0,0-1.5.03c-1.872.243-3.743.5-5.614.753l-1.824.248a3.523,3.523,0,0,0-.425.072c-1.142.285-1.256.986-1.223,1.379.059.69.6,1.113,1.458,1.131a5.6,5.6,0,0,0,.562-.037h.006l.01.072.243-.032c.62-.082,1.239-.161,1.86-.241,1.626-.208,3.306-.424,4.955-.679a5.512,5.512,0,0,0,1.886-.718,1.355,1.355,0,0,0,.631-1.167C-166.375,360.822-166.952,360.49-167.32,360.414Z" fill="#2c89e5"/>
      <path id="路径_14603" data-name="路径 14603" d="M-158.9,355.477l-.091-1.49c-.064-1.053-.12-1.984-.2-2.912s-.552-1.471-1.319-1.443c-.336.018-1.121.206-1.171,1.565,0,.072,0,.142,0,.214l.065,1.91c.054,1.633.109,3.267.186,4.9a5.765,5.765,0,0,0,.325,1.719,1.264,1.264,0,0,0,.955.748h.011a1.245,1.245,0,0,0,.952-.721,4.143,4.143,0,0,0,.268-1.477c.024-.831.019-1.669.014-2.343Z" fill="#2c89e5"/>
      <path id="路径_14604" data-name="路径 14604" d="M-177.1,346.28a2.776,2.776,0,0,0,.408.12l1.2.307c.768.2,1.537.394,2.3.6a1.606,1.606,0,0,0,.414.06.86.86,0,0,0,.571-.188.987.987,0,0,0,.294-.9,1.724,1.724,0,0,0-1.141-1.49c-.715-.281-1.461-.505-2.182-.723-.3-.091-.6-.182-.9-.277l-.237-.075-.06.192a2.753,2.753,0,0,0-.364.007,1.168,1.168,0,0,0-1.136.98A1.191,1.191,0,0,0-177.1,346.28Z" fill="#2c89e5"/>
      <path id="路径_14605" data-name="路径 14605" d="M-192.573,345.816c.86.34,1.762.656,2.68.938a1.143,1.143,0,0,0,.342.053.947.947,0,0,0,.671-.266,1.031,1.031,0,0,0,.235-1.04,1.562,1.562,0,0,0-.588-.885c-.626-.347-1.282-.656-1.916-.956-.242-.114-.485-.229-.726-.345l-.074-.036-.08.016a1.5,1.5,0,0,0-1.357.994A1.2,1.2,0,0,0-192.573,345.816Z" fill="#2c89e5"/>
    </g>
    <g id="组_47315" data-name="组 47315">
      <path id="路径_14606" data-name="路径 14606" d="M-170.851,391.406a22.829,22.829,0,0,0-2.873-.175c-.5,0-1,.016-1.5.036-.614.024-1.251.048-1.867.028a13.767,13.767,0,0,1-1.726-.208c-.187-.03-.377-.061-.569-.09l.35-1.368c.2-.052.393-.1.586-.15.549-.139,1.069-.27,1.59-.431l.114-.034c.516-.155,1.222-.366,1.194-1.251a.8.8,0,0,0-.258-.578,2.048,2.048,0,0,0-1.505-.314,6.733,6.733,0,0,0-.7.1c-.155.027-.31.054-.467.072-.185.022-.372.03-.577.039l-.043,0V386c3.133-1.118,4.492-3.744,5.408-6.177a1.908,1.908,0,0,1,.358-.515c.065-.076.13-.152.19-.229a1.183,1.183,0,0,0,.309-.908,1.156,1.156,0,0,0-.562-.753c-.111-.076-.23-.145-.349-.213a2.194,2.194,0,0,1-.551-.389,4.261,4.261,0,0,0-3.739-1.339,6.406,6.406,0,0,0-.746.115c-.181.036-.364.071-.547.093-.1.012-.346.044-.37.038a1.747,1.747,0,0,1,0-.507l.469-.07c.5-.075,1-.15,1.5-.23.265-.042,1.071-.171,1.092-1.02a1.093,1.093,0,0,0-1.033-1.1,10.491,10.491,0,0,0-1.7-.153,5.621,5.621,0,0,0-.83.074l-.185.026c-.029-.1-.059-.207-.086-.307-.1-.366-.2-.711-.323-1.047a1.112,1.112,0,0,0-1.379-.847c-.354.092-.928.4-.8,1.406.042.322.1.641.159.955l.043.235c-.1.044-.2.083-.3.122-.52.2-1.23.474-1.064,1.413s.928.966,1.483.979c.143,0,.281.007.41.021l.078.749a3.691,3.691,0,0,1-3.663.292l-.069-.33c-.078-.377-.16-.766-.244-1.155-.074-.342-.15-.684-.24-1.023a1.129,1.129,0,0,0-1.268-.993.95.95,0,0,0-.662.345,1.5,1.5,0,0,0-.263,1.123c.03.289.081.576.132.863.034.186.067.372.094.56.05.344.09.691.134,1.056l.036.3-2.606.846c-.132.042-.264.082-.4.122-.288.088-.576.175-.854.285-1.192.471-1.118,1.229-1.03,1.534.189.657.825.933,1.688.734.258-.059.512-.136.766-.213.165-.049.329-.1.494-.144.556-.15,1.112-.295,1.705-.451l.43-.112v1.971l-.856.276c-.759.245-1.519.49-2.282.725a2.27,2.27,0,0,0-1.446.909,1.027,1.027,0,0,0-.047.814c.307.967,1.332.837,2.079.654.593-.145,1.184-.3,1.848-.467l.623-.16q-.044.262-.084.52c-.231,1.453-.43,2.708-1.715,3.548a1.233,1.233,0,0,0-.491,1.112,1.337,1.337,0,0,0,.912.783,2.074,2.074,0,0,0,2.224-.8,5.7,5.7,0,0,0,1.038-1.886,25.13,25.13,0,0,0,.689-3.73,1.227,1.227,0,0,1,.8-1.184c.723-.288,1.444-.579,2.23-.9l.586-.237v2.309l-.61.231c-.6.226-1.192.451-1.782.686a1.564,1.564,0,0,0-.918.756.756.756,0,0,0,.04.622c.281.563.048.864-.275,1.282-.072.092-.144.186-.211.284l-.314.452a22.334,22.334,0,0,0-1.329,2.067,1.993,1.993,0,0,0-.064,2.118,1.276,1.276,0,0,0,.908.578h0a1.224,1.224,0,0,0,.886-.584,4.34,4.34,0,0,0,.384-.866c.026-.07.052-.142.079-.216.33.122.652.244.969.364.884.336,1.718.652,2.58.914l.3.091a16.026,16.026,0,0,0,3.406.776c.621.047,1.246.065,1.872.065,1.009,0,2.019-.047,3.008-.093l.346-.016a5.958,5.958,0,0,0,1.956-.49A1.211,1.211,0,0,0-170,392.3,1.2,1.2,0,0,0-170.851,391.406Zm-8.54-13.07a1.32,1.32,0,0,1,.928-.32Zm.126,5.151v-2.4a5.427,5.427,0,0,1,2.711-.863q-.159.273-.314.542a23.63,23.63,0,0,1-1.308,2.1,2.015,2.015,0,0,1-.776.476C-179.052,383.387-179.156,383.435-179.265,383.487Zm-2.942-3.9c-.766.335-1.54.651-2.385.995l-.807.331v-1.472l3.443-.449C-181.853,379.318-181.926,379.468-182.207,379.591Zm.53,7.255v3.36l-1.97-.658.211-.316c.552-.827,1.075-1.61,1.608-2.383Z" fill="#2c89e5"/>
      <path id="路径_14607" data-name="路径 14607" d="M-149.481,386.981a5.92,5.92,0,0,0-1.155.535c-.171.1-.341.189-.515.274a9.628,9.628,0,0,1-3.4,1.04,13.074,13.074,0,0,0,.915-5.169,8.577,8.577,0,0,0-2.261-6.128,4.647,4.647,0,0,0-4.693-1.567.5.5,0,0,1-.129.012c.459-1.409.935-2.579,2.69-2.394a.6.6,0,0,0,.44-.112c.069-.062.15-.124.231-.186.273-.21.555-.427.591-.737a1.455,1.455,0,0,0-.66-1.141,3.352,3.352,0,0,0-.987-.379c-.075-.021-.152-.041-.23-.064l.03-.129a7.553,7.553,0,0,0,.16-.792,1.13,1.13,0,0,0-.725-1.319,1.145,1.145,0,0,0-1.493.64,6.839,6.839,0,0,0-.536,1.381,1.359,1.359,0,0,1-1.152,1.06,18.526,18.526,0,0,0-2.255.732c-.857.333-1.24,1-.977,1.7a1.335,1.335,0,0,0,1.7.724c.284-.059.564-.133.859-.212a4.037,4.037,0,0,1-1.551,2.422,1.572,1.572,0,0,0-.543,1.5l.127,1.121c.09.788.18,1.575.256,2.364.091.95.175,1.9.26,2.851.093,1.037.185,2.074.285,3.111.083.855.455,1.362,1.106,1.5a1.267,1.267,0,0,0,1.478-1.029.61.61,0,0,1,.072-.058c.034-.026.074-.058.122-.1l.59,0c.606,0,1.264.009,1.919-.011a4.088,4.088,0,0,0,1.36-.207c.315-.123.776-.511.789-.894a1.176,1.176,0,0,0-.789-.928,9.912,9.912,0,0,0-1.979-.242c-.565-.025-1.136-.021-1.691-.015l-.332,0a.148.148,0,0,1,.066-.046c.337-.09.676-.169,1.016-.247.379-.087.759-.175,1.176-.291a4.551,4.551,0,0,0,1.349-.537,1.725,1.725,0,0,0,.51-.683c.05-.1.1-.194.155-.282l.139-.219-.225-.129c-.091-.052-.181-.115-.272-.177a1.863,1.863,0,0,0-.769-.373,4.8,4.8,0,0,0-1.494.1c-.53.089-1.056.2-1.627.324l-.506.106-.124-1.335a7.394,7.394,0,0,1,4.071-.933,1.147,1.147,0,0,0,1.042-.573.9.9,0,0,0,.084-.569,3.235,3.235,0,0,1,.191.414,10.32,10.32,0,0,1-.443,8.027,1.7,1.7,0,0,1-1.491,1.041,19.782,19.782,0,0,1-6.778-.125,12.865,12.865,0,0,0-1.973-.2h-.019a1.117,1.117,0,0,0-1.129.993,1.179,1.179,0,0,0,.731,1.312,2.508,2.508,0,0,0,.69.21c.5.074,1.006.162,1.509.25a22.5,22.5,0,0,0,3.862.447,9.554,9.554,0,0,0,1.418-.1c3.2-.474,6.326-1.148,8.69-1.681a6.956,6.956,0,0,0,2.055-.984c.146-.091.292-.182.438-.269a2.764,2.764,0,0,0,.993-1.01,1.415,1.415,0,0,0,.027-1.309A1.375,1.375,0,0,0-149.481,386.981Zm-10.948-7.859a15.782,15.782,0,0,0-1.552.562q-.252.1-.506.2l-.033-.03c.019-.044.037-.089.056-.133a1.535,1.535,0,0,1,.289-.513,2.587,2.587,0,0,1,.693-.4c.089-.041.178-.082.264-.125,1.6-.8,2.583-.631,3.62.667a2.1,2.1,0,0,0-.952-.466A4.583,4.583,0,0,0-160.429,379.122Z" fill="#2c89e5"/>
      <path id="路径_14608" data-name="路径 14608" d="M-200.792,384.552a2.484,2.484,0,0,0,.789-3.619,1.058,1.058,0,0,1-.086-1.2,4.126,4.126,0,0,0,.352-.9,2.666,2.666,0,0,0-.208-2.342,2.664,2.664,0,0,0-2.145-.955c-.378-.021-.758-.016-1.151-.01-.1,0-.2,0-.3,0v-.664c0-.663,0-1.288,0-1.912a2.013,2.013,0,0,0-.388-1.5.923.923,0,0,0-.685-.237c-.833.032-1,.8-1.063,1.63l-.21,2.86a4,4,0,0,1-.568.143c-.587.119-1.318.268-1.369,1.222-.059,1.084.793,1.211,1.415,1.3.128.019.258.038.383.064l-.174,1.434c-.153,1.271-.305,2.528-.462,3.785-.117.934-.125,1-.993,1.185a2.2,2.2,0,0,0-1.433-1.524c-.781-.373-1.58-.7-2.424-1.055-.34-.141-.687-.285-1.042-.436l-.023-.137c-.043-.242-.1-.536-.127-.832-.064-.6-.123-1.207-.182-1.81-.1-1.038-.2-2.075-.329-3.11a1.407,1.407,0,0,0-.513-.987,1.006,1.006,0,0,0-.782-.176,1.186,1.186,0,0,0-1,1.267,4.24,4.24,0,0,0,.014.552c.036.423.068.847.1,1.27.075.989.153,2.011.267,3.014.329,2.9.682,5.806,1.035,8.707l.227,1.9a3.793,3.793,0,0,0,.254,1.2,1.425,1.425,0,0,0,1.035.808h.007c.494-.006.934-.663,1.017-.8a1.836,1.836,0,0,0,.162-1.027c-.034-.79-.078-1.708-.176-2.61-.115-1.047-.249-2.093-.389-3.183l-.129-1.013,2.547.959a1.188,1.188,0,0,0-.045,1.639,1.387,1.387,0,0,0,1.582.313c.216-.071.434-.132.694-.2l.1-.028,0,.525c-.006.667-.011,1.3.016,1.934.029.7.4,1.124.987,1.145.559.02.928-.337,1.053-1.065l.1-.594c.124-.692.252-1.406.313-2.121a1.273,1.273,0,0,1,.914-1.227A17.029,17.029,0,0,0-200.792,384.552Zm-1.523-6.377a13,13,0,0,1-1.317,2.738c-.106.181-.211.361-.314.542l.216-3.28Z" fill="#2c89e5"/>
      <path id="路径_14609" data-name="路径 14609" d="M-128.987,387.889a1.3,1.3,0,0,0-1.642-.508c-.363.1-.728.184-1.093.27-.224.053-.447.106-.67.161a22.518,22.518,0,0,1-11.426-.157l.207-.73a2.966,2.966,0,0,0-.705-3.02,25.329,25.329,0,0,0-2.192-1.951l-.16-.132a1.124,1.124,0,0,0-1.623.028.981.981,0,0,0-.3.7,1.478,1.478,0,0,0,.51,1.014c.247.243.51.471.772.7s.524.453.77.7c.733.727.779,1.1.248,2-.581.981-.739,1.573-.546,2.044s.709.771,1.785,1.053q.756.2,1.513.39a24.532,24.532,0,0,0,5.917.739,22.959,22.959,0,0,0,5.527-.673,10.256,10.256,0,0,0,2.33-.937,1.644,1.644,0,0,0,.868-.913A.991.991,0,0,0-128.987,387.889Z" fill="#2c89e5"/>
      <path id="路径_14610" data-name="路径 14610" d="M-140.869,380.392c.133.015.268.026.424.038l-.041.189c-.064.3-.124.582-.186.859q-.144.646-.295,1.292c-.247,1.072-.5,2.18-.715,3.28a3.058,3.058,0,0,0,.118,1.518,1.257,1.257,0,0,0,1,.712h0a1.409,1.409,0,0,0,.976-.656,2.1,2.1,0,0,0,.253-.787c.016-.1.033-.191.055-.283l1.052-4.413a3.015,3.015,0,0,0,1.808,1.134,2.385,2.385,0,0,1,.447.159l.113.047c.139.057.28.11.421.162.679.252,1.265.47,1.554,1.214a.838.838,0,0,0,.632.529,1.047,1.047,0,0,0,.187.017,1.27,1.27,0,0,0,.9-.408,1.44,1.44,0,0,0,.238-1.856,4.463,4.463,0,0,0-1.432-1.386,7.859,7.859,0,0,0-1.358-.544,9.492,9.492,0,0,1-1.057-.4,2.044,2.044,0,0,0-2.151.047l.231-.971-.149.27a1.49,1.49,0,0,1,1.29-1.082,3.236,3.236,0,0,0,1.455-.8,1.289,1.289,0,0,0,.285-1.159c-.094-.342-.591-.576-.9-.627a5.132,5.132,0,0,0-1.011-.032l-.134,0c.025-.091.05-.182.074-.272.117-.426.227-.828.311-1.242a1.5,1.5,0,0,0-.161-1.14.956.956,0,0,0-.631-.409,1.143,1.143,0,0,0-1.348.891,10.978,10.978,0,0,0-.491,1.655c-.242,1.265-.768,1.871-1.76,2.026a.772.772,0,0,0-.515.27c-.043.065-.09.13-.137.2a1.821,1.821,0,0,0-.423.884C-141.971,379.9-141.554,380.319-140.869,380.392Z" fill="#2c89e5"/>
      <path id="路径_14611" data-name="路径 14611" d="M-195.135,388.454c-2.11-1.279-4.379-1.639-7.353-2.007h-.013a1.254,1.254,0,0,0-1.35,1.068c-.053.413.05,1.147,1.331,1.434.038.008.077.012.15.02a26.051,26.051,0,0,1,6.194,1.66,3.212,3.212,0,0,0,1.125.263,1.174,1.174,0,0,0,.482-.094,1,1,0,0,0,.528-.588C-193.757,389.472-194.249,388.991-195.135,388.454Z" fill="#2c89e5"/>
      <path id="路径_14612" data-name="路径 14612" d="M-216.1,381.175a1.268,1.268,0,0,0-1.552,1.02c-.35,1.215-.659,2.442-.958,3.629q-.18.715-.358,1.411l-.016.062.017.062c.059.227.107.442.151.646a5.418,5.418,0,0,0,.4,1.29,1.38,1.38,0,0,0,1.079.635.733.733,0,0,0,.106-.009c.338-.057.567-.426.768-.752l.092-.147a.7.7,0,0,0,.073-.446.955.955,0,0,1,0-.16l.1-.642c.186-1.19.371-2.381.577-3.568a5.907,5.907,0,0,1,.171-.671,6.661,6.661,0,0,0,.182-.71C-215.12,381.969-215.43,381.353-216.1,381.175Z" fill="#2c89e5"/>
      <path id="路径_14613" data-name="路径 14613" d="M-145.793,379.384a1.231,1.231,0,0,0,.946.616.55.55,0,0,0,.07,0c.275-.036.444-.311.58-.532a1.409,1.409,0,0,1,.1-.153l.072-.09-.022-.113c-.054-.274-.1-.529-.147-.773-.1-.521-.185-.985-.294-1.444a1.041,1.041,0,0,0-1.187-.9.919.919,0,0,0-.662.392,1.228,1.228,0,0,0-.143,1.012A10.679,10.679,0,0,0-145.793,379.384Z" fill="#2c89e5"/>
    </g>
  </g>
</svg>
