<svg xmlns="http://www.w3.org/2000/svg" width="50.349" height="28.214" viewBox="0 0 50.349 28.214">
  <g id="组_47334" data-name="组 47334" transform="translate(-990.196 -526.4)">
    <path id="路径_14692" data-name="路径 14692" d="M1013.263,534.158a3.546,3.546,0,0,0-1.112-.441,4.946,4.946,0,0,0-1.4-.082c-.943.094-1.885.21-2.826.325l-1.177.143.086-1.567a4.214,4.214,0,0,0,.611-.206,8.776,8.776,0,0,0,1.448-.75,1.328,1.328,0,0,0,.477-1.315,1.374,1.374,0,0,0-1.036-.848,3.549,3.549,0,0,0-.97.014l-.245.025h-.017l.171-.868a5.373,5.373,0,0,0,.128-.77,1.266,1.266,0,0,0-.979-1.386,1.3,1.3,0,0,0-1.486.791,3.541,3.541,0,0,0-.214.706l-.107.466c-.112.487-.224.976-.3,1.469-.045.316-.07.318-.257.334a11.2,11.2,0,0,0-1.132.177c-.172.033-.344.066-.516.1-.118.019-.236.035-.355.05a6.687,6.687,0,0,0-.761.132,1.379,1.379,0,0,0-1.072,1.393,1.358,1.358,0,0,0,1.335,1.3,10.1,10.1,0,0,0,1.392-.055c.32-.028.638-.067.98-.11-.007.118-.014.236-.019.353a6.536,6.536,0,0,1-.133,1.2l-.485.116c-.758.183-1.511.364-2.267.535a.479.479,0,0,1-.221-.012,1.846,1.846,0,0,0-1.492.264,1.387,1.387,0,0,0-.818,1.481,1.4,1.4,0,0,0,1.415,1.169,5.837,5.837,0,0,0,1.371-.1c1.178-.243,2.352-.5,3.527-.753l2.073-.448c.05-.011.1-.02.152-.028v1.726c-.154.046-.313.094-.474.139l-1.825.5q-1.4.386-2.8.776a4.532,4.532,0,0,0-.911.348,1.229,1.229,0,0,0-.552.576.89.89,0,0,0-.16-.081,1.159,1.159,0,0,0-1.384.707l-.419.685c-.317.509-.632,1.017-.954,1.521a18.054,18.054,0,0,0,.249-2.012,2.763,2.763,0,0,0-.737-2.263,2.855,2.855,0,0,0-2.388-.572l-2.832.279a3.027,3.027,0,0,0-.648.1,1.357,1.357,0,0,0,.134,2.649,2.7,2.7,0,0,0,.687.043c.439-.027.877-.06,1.317-.092s.869-.062,1.306-.091c.093-.006.185-.007.285-.008a1.241,1.241,0,0,1-.005.221c-.045.382-.11.762-.173,1.142l-.1.591c-.029.187-.062.375-.1.563a11.994,11.994,0,0,0-.2,1.484,2.171,2.171,0,0,0,1.209,2.175,2.246,2.246,0,0,0,.981.235,2.182,2.182,0,0,0,1.563-.691,8.14,8.14,0,0,0,1.41-1.841,26.915,26.915,0,0,0,1.13-2.5l.215-.518c.026-.063.041-.119.061-.178a1.243,1.243,0,0,0,.673.208,3.079,3.079,0,0,0,.756-.1l3.306-.806c.525-.126,1.05-.245,1.576-.364l.067-.015c.029.381.061.763.092,1.143.107,1.282.217,2.606.266,3.905a10.292,10.292,0,0,1-.34,3.336,2.467,2.467,0,0,1-1.011,1.465,1.153,1.153,0,0,1-1.76-.216,1.238,1.238,0,0,0-1.6-.407,1.219,1.219,0,0,0-.513,1.578,3.094,3.094,0,0,0,3.077,2.307l.14,0a4.694,4.694,0,0,0,3.929-2.318,6.18,6.18,0,0,0,.888-2.741,27.022,27.022,0,0,0-.1-6.787c-.078-.563-.145-1.126-.21-1.688l-.042-.352.024-.011c.329-.142.63-.273,1.009-.447a1.558,1.558,0,0,0,.669-.469,1.658,1.658,0,0,0,.35-1.1,1.038,1.038,0,0,0-.393-.707,1.228,1.228,0,0,0-.929-.229c-.35.046-.7.108-1.066.174l-.183-1.281a13.536,13.536,0,0,1,2.078-.019l.276.017c.206.014.412.026.618.022a1.31,1.31,0,0,0,1.32-.983A1.324,1.324,0,0,0,1013.263,534.158Z"/>
    <path id="路径_14693" data-name="路径 14693" d="M1040.545,539.721h-.035c-.046-1.412-.107-2.824-.169-4.234a21.089,21.089,0,0,0-.249-2.692,4.472,4.472,0,0,0-4.843-4.033c-1.026.016-2.057.111-3.054.2-.408.038-.815.076-1.224.108a1.089,1.089,0,0,0-.775.322,1.814,1.814,0,0,0-.515.9,1.145,1.145,0,0,0,.951,1.278,3.183,3.183,0,0,0,.857.047c.391-.023.782-.051,1.171-.079.584-.042,1.169-.084,1.753-.109a6.921,6.921,0,0,1,1.416.048,1.615,1.615,0,0,1,1.423,1.26,6.291,6.291,0,0,1,.217,1.246,105.748,105.748,0,0,1,.136,10.993,22.017,22.017,0,0,1-.39,3.131c-.18.954-.643,1.1-1.115,1.113a1.333,1.333,0,0,0-1.323,1.344,1.4,1.4,0,0,0,1.19,1.361,3.554,3.554,0,0,0,.8.1,2.624,2.624,0,0,0,1.988-.86,5.225,5.225,0,0,0,1.095-1.76,9.783,9.783,0,0,0,.5-2.576c.075-1.378.1-2.776.121-4.129.01-.606.02-1.214.035-1.821h.025l-.006-.732Z"/>
    <path id="路径_14694" data-name="路径 14694" d="M1035.54,539.56a2.646,2.646,0,0,0-2.1-2.006,8.456,8.456,0,0,0-1.048-.127l-.28-.024-.053,0c-.122.009-.236.015-.351.021v-.049l.756-.072c.678-.064,1.354-.127,2.029-.21a1.317,1.317,0,0,0,1.234-1.258,1.341,1.341,0,0,0-1.21-1.38,1.645,1.645,0,0,0-.472-.035l-.82.076c-1.066.1-2.131.2-3.2.318a1.3,1.3,0,0,0-1.167,1.382,1.325,1.325,0,0,0,1.257,1.244,2.9,2.9,0,0,0,.31.015c.123,0,.247-.005.371-.012.1-.005.205-.01.307-.01l.515,0-.057,0a3.636,3.636,0,0,0-2.637.87,1.75,1.75,0,0,0-.682,1.635c.067.388.14.775.213,1.162a1.2,1.2,0,0,0-1.178.316,3.438,3.438,0,0,0-.29.312c-.048.057-.1.115-.148.169l-.1.1c-.2.2-.4.407-.6.609V542.6l.112-.426a8.955,8.955,0,0,0,.279-1.308,2.16,2.16,0,0,0-2.512-2.524,4.857,4.857,0,0,0-.906.2l-.172.05c-.768.217-1.538.44-2.307.661l-.995.284a2.462,2.462,0,0,0-.321.1,1.281,1.281,0,0,0,.392,2.5,2.047,2.047,0,0,0,.553-.04q1.586-.345,3.17-.7.063-.014.126-.03c-.07.266-.145.529-.22.794-.112.4-.223.788-.321,1.185a5.962,5.962,0,0,0-.222,1.35,2.073,2.073,0,0,0,.794,1.743,1.937,1.937,0,0,0,1.159.367,2.424,2.424,0,0,0,.762-.127,3.02,3.02,0,0,0,.7-.327,8.584,8.584,0,0,0,2.514-2.76,1.491,1.491,0,0,0,.305,1.2,1.352,1.352,0,0,0,1.039.416,2.26,2.26,0,0,0,.391-.036,25.616,25.616,0,0,0,3.156-.737A2.666,2.666,0,0,0,1035,543.3,4.7,4.7,0,0,0,1035.54,539.56Zm-4.5.6c.532-.009,1.035-.017,1.515.021a.446.446,0,0,1,.165.033.613.613,0,0,1,.058.289,2.393,2.393,0,0,1-.039.489c-.143.971-.143.971-1.119,1.125l-.115.017-.487-1.973Z"/>
    <path id="路径_14695" data-name="路径 14695" d="M1004.78,547.872h0l.523.007.382.005a1.271,1.271,0,0,0,1.244-1.191c.023-.385-.1-1.076-1.175-1.363l-.609-.163c-.8-.213-1.59-.426-2.391-.612a1.4,1.4,0,0,0-1.78.9,1.36,1.36,0,0,0,.089,1.074,1.545,1.545,0,0,0,.972.73c.611.17,1.229.3,1.848.427" stroke="rgba(0,0,0,0)" stroke-width="1"/>
    <path id="路径_14696" data-name="路径 14696" d="M994.977,535.956a3.436,3.436,0,0,0,1,.4c.12.033.24.066.356.1l.126.044.132-.014a1.429,1.429,0,0,0,1.35-.853,1.224,1.224,0,0,0-.591-1.539c-.468-.323-.932-.65-1.4-.978l-1-.7a1.41,1.41,0,0,0-1.971.089,1.373,1.373,0,0,0,.175,2.01A14.541,14.541,0,0,0,994.977,535.956Z"/>
    <path id="路径_14697" data-name="路径 14697" d="M1022.2,535.352a12.509,12.509,0,0,0,1.292.375c.167.042.332.083.491.127l.154.042.153-.04c.11-.028.218-.05.321-.071a2.873,2.873,0,0,0,.841-.267,1.409,1.409,0,0,0,.7-1.115,1.315,1.315,0,0,0-.8-1.141,20.83,20.83,0,0,0-2.372-.64,1.4,1.4,0,0,0-1.663,1A1.411,1.411,0,0,0,1022.2,535.352Z"/>
  </g>
</svg>
