<svg xmlns="http://www.w3.org/2000/svg" width="210" height="62.15" viewBox="0 0 210 62.15">
  <g id="组_47251" data-name="组 47251" transform="translate(-555.285 -238.629)">
    <g id="组_47249" data-name="组 47249" transform="translate(555.435 238.629)">
      <path id="路径_14383" data-name="路径 14383" d="M558.377,262.795H562.4a7.126,7.126,0,0,1,4.458,1.2,4.15,4.15,0,0,1,1.538,3.479,5.221,5.221,0,0,1-.725,2.771,4.833,4.833,0,0,1-2.03,1.836,6.637,6.637,0,0,1-2.987.647,9.787,9.787,0,0,1-2.2-.254v6.339h-2.079Zm6.9,7.329a3.271,3.271,0,0,0,1.034-2.572A2.707,2.707,0,0,0,565.3,265.2a4.983,4.983,0,0,0-2.937-.73h-1.9v6.394a10.373,10.373,0,0,0,1.814.188A4.371,4.371,0,0,0,565.274,270.124Z" transform="translate(-558.377 -261.623)" fill="#231815"/>
      <path id="路径_14384" data-name="路径 14384" d="M789.261,355.124a4.965,4.965,0,0,1-1.952-2.074,6.963,6.963,0,0,1-.708-3.252,7.37,7.37,0,0,1,.708-3.324,5.208,5.208,0,0,1,1.974-2.19,5.507,5.507,0,0,1,2.915-.769,5.446,5.446,0,0,1,2.865.752,5.089,5.089,0,0,1,1.947,2.151,7.248,7.248,0,0,1,.7,3.269,7.044,7.044,0,0,1-.725,3.3,5.088,5.088,0,0,1-2,2.118,5.7,5.7,0,0,1-2.887.73A5.606,5.606,0,0,1,789.261,355.124Zm5.492-2.074a5.459,5.459,0,0,0,.83-3.219,5.913,5.913,0,0,0-.88-3.418,2.94,2.94,0,0,0-2.583-1.272,2.9,2.9,0,0,0-2.561,1.233,5.743,5.743,0,0,0-.846,3.3,6.517,6.517,0,0,0,.409,2.434,3.165,3.165,0,0,0,3.13,2.1A2.869,2.869,0,0,0,794.754,353.049Z" transform="translate(-775.529 -338.425)" fill="#231815"/>
      <path id="路径_14385" data-name="路径 14385" d="M1036.492,348.3h2.1l2.223,7.755q.42,1.416.586,2.29a14.329,14.329,0,0,1,.575-2.224l2.467-7.821h1.781l2.455,7.81a18.98,18.98,0,0,1,.586,2.235,18.147,18.147,0,0,1,.5-2.279l2.29-7.766h2.058l-3.783,11.87h-2.158l-2.378-7.555q-.3-.929-.531-1.892-.155.719-.487,1.847l-2.367,7.6h-2.168Z" transform="translate(-1013.296 -342.976)" fill="#231815"/>
      <path id="路径_14386" data-name="路径 14386" d="M1430.02,349.753h-7.931a4.961,4.961,0,0,0,1.012,3.335,3.628,3.628,0,0,0,2.859,1.112,7.848,7.848,0,0,0,3.352-.764l.476,1.46a8.767,8.767,0,0,1-1.9.7,9.93,9.93,0,0,1-2.328.243,5.956,5.956,0,0,1-3.026-.719,4.572,4.572,0,0,1-1.88-2.074,7.61,7.61,0,0,1-.636-3.258,7.888,7.888,0,0,1,.664-3.374,4.923,4.923,0,0,1,1.852-2.157,5.069,5.069,0,0,1,2.739-.741,4.457,4.457,0,0,1,2.66.763,4.513,4.513,0,0,1,1.576,2.008,7.08,7.08,0,0,1,.509,2.7Zm-2.047-1.438a4.068,4.068,0,0,0-.835-2.461,2.456,2.456,0,0,0-1.941-.824,2.632,2.632,0,0,0-2,.835,4.385,4.385,0,0,0-1.023,2.45Z" transform="translate(-1378.217 -338.425)" fill="#231815"/>
      <path id="路径_14387" data-name="路径 14387" d="M1678.536,346.733q0-1-.088-2.987h1.881q.066.5.122,1.2t.077,1.112a10.8,10.8,0,0,1,.951-1.328,3.782,3.782,0,0,1,1.1-.879,3,3,0,0,1,1.438-.337,3.813,3.813,0,0,1,1.084.144l-.287,1.8a3.468,3.468,0,0,0-.884-.111,2.836,2.836,0,0,0-1.737.559,7.711,7.711,0,0,0-1.615,1.809v7.9h-2.036Z" transform="translate(-1624.107 -338.425)" fill="#231815"/>
      <path id="路径_14388" data-name="路径 14388" d="M1838.021,349.753h-7.931a4.962,4.962,0,0,0,1.012,3.335,3.628,3.628,0,0,0,2.859,1.112,7.85,7.85,0,0,0,3.352-.764l.476,1.46a8.765,8.765,0,0,1-1.9.7,9.933,9.933,0,0,1-2.328.243,5.955,5.955,0,0,1-3.026-.719,4.572,4.572,0,0,1-1.88-2.074,7.611,7.611,0,0,1-.636-3.258,7.892,7.892,0,0,1,.664-3.374,4.924,4.924,0,0,1,1.853-2.157,5.068,5.068,0,0,1,2.738-.741,4.458,4.458,0,0,1,2.66.763,4.514,4.514,0,0,1,1.576,2.008,7.082,7.082,0,0,1,.509,2.7Zm-2.047-1.438a4.066,4.066,0,0,0-.835-2.461,2.457,2.457,0,0,0-1.942-.824,2.632,2.632,0,0,0-2,.835,4.386,4.386,0,0,0-1.023,2.45Z" transform="translate(-1766.423 -338.425)" fill="#231815"/>
      <path id="路径_14389" data-name="路径 14389" d="M2082.713,255.819q-.132-.686-.21-1.482a5.156,5.156,0,0,1-1.615,1.245,4.661,4.661,0,0,1-2.091.459,4.431,4.431,0,0,1-2.268-.592,4.184,4.184,0,0,1-1.637-1.881,7.581,7.581,0,0,1-.619-3.28,8.593,8.593,0,0,1,.652-3.485,5.087,5.087,0,0,1,1.886-2.284,5.268,5.268,0,0,1,2.937-.8,7.766,7.766,0,0,1,1.4.133,10.97,10.97,0,0,1,1.289.31v-5.31l2.035-.221v14.193q0,1.46.088,3Zm-1.648-1.919a4.329,4.329,0,0,0,1.372-1.1v-7.08a10.96,10.96,0,0,0-1.278-.315,6.748,6.748,0,0,0-1.233-.127,3.169,3.169,0,0,0-1.875.559,3.545,3.545,0,0,0-1.222,1.665,7.487,7.487,0,0,0-.432,2.71,5.082,5.082,0,0,0,.792,3.169,2.493,2.493,0,0,0,2.041.99A3.821,3.821,0,0,0,2081.065,253.9Z" transform="translate(-2000.728 -238.629)" fill="#231815"/>
      <path id="路径_14390" data-name="路径 14390" d="M2493.9,244.32a4.309,4.309,0,0,1,1.649,1.914,7.665,7.665,0,0,1,.631,3.324,8.427,8.427,0,0,1-.653,3.462,4.912,4.912,0,0,1-1.931,2.246,5.837,5.837,0,0,1-3.114.785,13.587,13.587,0,0,1-2.251-.216,13.728,13.728,0,0,1-2.24-.559V238.85l2.047-.221v6.748a5,5,0,0,1,3.628-1.659A4.3,4.3,0,0,1,2493.9,244.32Zm-.752,8.922a5.877,5.877,0,0,0,.918-3.562,5.372,5.372,0,0,0-.791-3.275,2.525,2.525,0,0,0-2.1-1.018,3.6,3.6,0,0,0-1.731.432,5.6,5.6,0,0,0-1.421,1.084v7.19a6.155,6.155,0,0,0,1.178.287,8.154,8.154,0,0,0,1.167.089A3.243,3.243,0,0,0,2493.148,253.242Z" transform="translate(-2392.472 -238.629)" fill="#231815"/>
      <path id="路径_14391" data-name="路径 14391" d="M2696,364.846l.387-1.582c.155.044.38.094.675.149a4.425,4.425,0,0,0,.808.083,2.261,2.261,0,0,0,1.687-.714,6.235,6.235,0,0,0,1.222-2.063l.244-.586-4.481-11.837h2.2l2.5,7.124a22.932,22.932,0,0,1,.808,2.743q.376-1.272.84-2.655l2.467-7.213h2.136l-4.558,12.2a13.462,13.462,0,0,1-1.261,2.649,4.508,4.508,0,0,1-1.543,1.5,4.334,4.334,0,0,1-2.162.5A5.816,5.816,0,0,1,2696,364.846Z" transform="translate(-2592.288 -342.976)" fill="#231815"/>
    </g>
    <g id="组_47250" data-name="组 47250" transform="translate(555.285 262.361)">
      <path id="路径_14392" data-name="路径 14392" d="M4478.892,761.613a7.561,7.561,0,0,0,4.6-7.165q0-5.786-7.012-7.778l-3.908-1.15a8.247,8.247,0,0,1-3.314-1.628,3.139,3.139,0,0,1-1.053-2.395,3.563,3.563,0,0,1,1.513-2.931,6.056,6.056,0,0,1,3.813-1.168,6.744,6.744,0,0,1,3.7,1.034,6.426,6.426,0,0,1,2.259,2.41c.032.062.1.176.189.343l.33-.2,2.776-1.685c.05-.03.142-.092.275-.185-.056-.135-.1-.233-.13-.3a8.645,8.645,0,0,0-3.533-3.718,11.545,11.545,0,0,0-5.863-1.456,11.828,11.828,0,0,0-5,1.015,8.087,8.087,0,0,0-3.448,2.893,7.587,7.587,0,0,0-1.245,4.291q0,5.671,6.858,7.7l4.214,1.226a8.014,8.014,0,0,1,3.181,1.628,3.17,3.17,0,0,1,1.034,2.395,3.5,3.5,0,0,1-1.513,2.931,6.332,6.332,0,0,1-3.889,1.13,8.888,8.888,0,0,1-5.212-1.684,4.819,4.819,0,0,1-1.535-1.741q-.076-.15-.316-.6-.406.211-.586.31l-2.7,1.479c-.05.027-.148.085-.3.175q.086.209.135.309a8.836,8.836,0,0,0,3.973,3.955,14.071,14.071,0,0,0,6.686,1.552,11.973,11.973,0,0,0,5.018-1Z" transform="translate(-4273.49 -733.359)" fill="#231815" fill-rule="evenodd"/>
      <path id="路径_14393" data-name="路径 14393" d="M3373.239,904.551l-.769.006h-3.879l-.13.331-5.279,14.441-5.268-14.413c-.015-.041-.041-.12-.077-.235l-.037-.118-.365,0h-4.559l.252.6c.025.06.044.107.056.14l7.706,19.693-3.744,8.642c-.04.092-.118.263-.234.513l-.111.239.844.008h3.8l11.646-29.463.147-.38Z" transform="translate(-3217.15 -895.975)" fill="#231815"/>
      <path id="路径_14394" data-name="路径 14394" d="M2962.114,893.616a7.974,7.974,0,0,0-3.972.98l-.144.083a6.536,6.536,0,0,0-2.184,2.074l-.06.094-.277-2.694h-3.687v20.378h4.44V902.867a5.174,5.174,0,0,1,1.333-3.715,4.519,4.519,0,0,1,3.44-1.4,3.972,3.972,0,0,1,3.111,1.285,5.017,5.017,0,0,1,1.163,3.488v12.009h4.4V901.679a8.993,8.993,0,0,0-.958-4.216,6.93,6.93,0,0,0-2.67-2.846,7.642,7.642,0,0,0-3.937-1Z" transform="translate(-2835.522 -885.571)" fill="#231815"/>
      <path id="路径_14395" data-name="路径 14395" d="M2492.646,893.616a10.119,10.119,0,0,1,5.24,1.345,9.336,9.336,0,0,1,3.571,3.8,12.8,12.8,0,0,1,0,11.174,9.37,9.37,0,0,1-3.57,3.783,10.12,10.12,0,0,1-5.24,1.345,10.223,10.223,0,0,1-5.258-1.345,9.333,9.333,0,0,1-3.59-3.784,12.84,12.84,0,0,1,0-11.193,9.332,9.332,0,0,1,3.59-3.784,10.223,10.223,0,0,1,5.258-1.345Zm0,4.018a5.037,5.037,0,0,0-4.065,1.836,8.431,8.431,0,0,0,0,9.743,5.377,5.377,0,0,0,8.093,0,8.431,8.431,0,0,0,0-9.743,5,5,0,0,0-4.028-1.836Z" transform="translate(-2389.014 -885.571)" fill="#231815"/>
      <path id="路径_14396" data-name="路径 14396" d="M1848.026,893.618a7.028,7.028,0,0,1,3.627,1.02,6.81,6.81,0,0,1,2.554,2.867,9.29,9.29,0,0,1,.9,3.972l0,.2v12.852h-4.4V902.138a4.679,4.679,0,0,0-1.05-3.2,3.582,3.582,0,0,0-2.842-1.187,4.152,4.152,0,0,0-3.171,1.288,4.7,4.7,0,0,0-1.217,3.258l0,.15v12.086h-4.4V902.138a4.625,4.625,0,0,0-1.068-3.2,3.641,3.641,0,0,0-2.862-1.189,4.106,4.106,0,0,0-3.133,1.288,4.7,4.7,0,0,0-1.217,3.258l0,.15v12.086H1825.3V894.152h3.735l.234,2.637.053-.084a6.455,6.455,0,0,1,2.068-2.021l.144-.087a7.179,7.179,0,0,1,3.707-.981,6.845,6.845,0,0,1,3.711,1.022,7.107,7.107,0,0,1,2.4,2.517l.015.027a6.582,6.582,0,0,1,2.4-2.464l.142-.083a7.761,7.761,0,0,1,3.756-1.017l.179,0,.178,0Z" transform="translate(-1763.686 -885.571)" fill="#231815"/>
      <path id="路径_14397" data-name="路径 14397" d="M1539.4,898.353a7.393,7.393,0,0,0-3.685.884l-.136.078a5.856,5.856,0,0,0-1.959,1.885l-.038.06-.227-2.6H1529.3v20.379h4.439V907.374a4.6,4.6,0,0,1,1.4-3.535,5.384,5.384,0,0,1,3.83-1.315,11.862,11.862,0,0,1,1.515.084l.128.022.205.042.265.057.01-.513q0-.1,0-.147v-3.512l-.126-.034c-.145-.04-.252-.065-.324-.078a7.541,7.541,0,0,0-1.254-.092Z" transform="translate(-1482.048 -890.078)" fill="#231815"/>
      <path id="路径_14398" data-name="路径 14398" d="M1102.8,893.616a8.854,8.854,0,0,1,6.012,1.938,6.809,6.809,0,0,1,2.241,5.31v13.666h-3.688l-.274-2.357-.063.091a5.9,5.9,0,0,1-1.867,1.667l-.153.085-.139.073a8.224,8.224,0,0,1-3.794.823,7.954,7.954,0,0,1-5.281-1.706,5.568,5.568,0,0,1-2.053-4.479,5.85,5.85,0,0,1,1.085-3.49,7.084,7.084,0,0,1,3-2.356,10.715,10.715,0,0,1,4.183-.837l.215,0h4.466v-.481a4.041,4.041,0,0,0-.948-2.87l-.071-.074-.077-.074a4.258,4.258,0,0,0-3.026-1.027,5.9,5.9,0,0,0-2.776.651,5.461,5.461,0,0,0-1.855,1.583l-.03.042c-.018.026-.04.061-.067.1l-.093.15-.1.157-.383-.282-.09-.067-2.288-1.739c-.037-.028-.093-.072-.167-.133l-.206-.171.13-.236c.049-.086.089-.151.12-.2a8.288,8.288,0,0,1,3.164-2.693,10.732,10.732,0,0,1,4.865-1.072Zm3.688,11.758h-4.147a4.912,4.912,0,0,0-3.058.885,2.652,2.652,0,0,0-1.14,2.2,2.521,2.521,0,0,0,1.044,2.125,4.458,4.458,0,0,0,2.771.808,4.6,4.6,0,0,0,3.46-1.308,4.651,4.651,0,0,0,1.272-3.28l0-.145v-1.082a.2.2,0,0,0-.2-.2Z" transform="translate(-1067.62 -885.571)" fill="#231815"/>
      <path id="路径_14399" data-name="路径 14399" d="M559.916,739.619h-4.631V768h4.631V755.476h13.8V768h4.631V739.619h-4.631v11.609h-13.8V739.619Z" transform="translate(-555.285 -739.045)" fill="#231815"/>
      <path id="路径_14400" data-name="路径 14400" d="M3841.48,727.787a14.784,14.784,0,1,1-14.784,14.784,14.784,14.784,0,0,1,14.784-14.784Zm0,4.418a10.366,10.366,0,1,0,10.366,10.366,10.365,10.365,0,0,0-10.366-10.366Z" transform="translate(-3667.981 -727.787)" fill="#231815"/>
      <rect id="矩形_15088" data-name="矩形 15088" width="19.712" height="4.078" transform="translate(163.643 34.156)" fill="#1f69ff"/>
    </g>
  </g>
</svg>
